<svg xmlns="http://www.w3.org/2000/svg" id="Layer_2" viewBox="0 0 210 210"><g id="Layer_1-2"><g><g><circle cx="105" cy="105" r="105"></circle><path d="M105,5.32c54.96,0,99.68,44.72,99.68,99.68s-44.72,99.68-99.68,99.68S5.32,159.96,5.32,105,50.04,5.32,105,5.32M105,0C47.01,0,0,47.01,0,105s47.01,105,105,105,105-47.01,105-105S162.99,0,105,0h0Z" fill="#e0071b"></path></g><g><g><path d="M63.57,105.01c0-36.61,18.28-66.55,41.44-66.64,23.16,.1,41.4,30.04,41.43,66.64-.02,36.58-18.27,66.52-41.43,66.62-23.16-.11-41.43-30.05-41.44-66.62"></path><path d="M108.12,145.05c-.6,.06-1.89,.42-1.76,2,.13,1.66,1.25,1.92,2.15,1.85,.84-.07,1.71-.69,1.6-1.98-.1-1.25-.76-1.98-1.99-1.87m0,0c-.6,.06-1.89,.42-1.76,2,.13,1.66,1.25,1.92,2.15,1.85,.84-.07,1.71-.69,1.6-1.98-.1-1.25-.76-1.98-1.99-1.87m11.83-.53c-.41-1.18-1.22-1.72-2.38-1.31-.58,.19-1.73,.88-1.22,2.37,.53,1.57,1.68,1.55,2.53,1.26,.8-.28,1.49-1.07,1.07-2.32m0,0c-.41-1.18-1.22-1.72-2.38-1.31-.58,.19-1.73,.88-1.22,2.37,.53,1.57,1.68,1.55,2.53,1.26,.8-.28,1.49-1.07,1.07-2.32m-22.02,4.43c-.85-.16-1.94,.18-2.15,1.36-.17,1.05,.53,1.89,1.61,2.08,1.22,.22,1.96-.64,2.09-1.39,.14-.78-.25-1.81-1.55-2.04m.89-4.33c-1.06-.2-1.8,.26-1.95,1.06-.1,.65,.37,1.46,1.39,1.64,.93,.17,1.64-.3,1.78-1.07,.14-.84-.47-1.49-1.22-1.63m0,0c-1.06-.2-1.8,.26-1.95,1.06-.1,.65,.37,1.46,1.39,1.64,.93,.17,1.64-.3,1.78-1.07,.14-.84-.47-1.49-1.22-1.63m-.89,4.33c-.85-.16-1.94,.18-2.15,1.36-.17,1.05,.53,1.89,1.61,2.08,1.22,.22,1.96-.64,2.09-1.39,.14-.78-.25-1.81-1.55-2.04m8.94-38.82v28.67c2.79-.15,5.48-.69,8.06-1.48v-27.16s-8.06-.03-8.06-.03Zm0-38.95v27.54h8.06v-25.77s0-.3,0-.3c-2.57-.78-5.27-1.31-8.07-1.48m20.69,8.55v18.99s10.74,0,10.74,0c-1.4-7.49-5.27-14.11-10.74-18.99m0,30.41v20.11c5.75-5.12,9.7-12.16,10.91-20.11h-10.91Zm-34.96-53.03l-3.35,6.9,4.85-1.92-1.5-4.98Zm0,0l-3.35,6.9,4.85-1.92-1.5-4.98Zm35.94,6.57c-6.05-10.56-14.38-17.04-23.52-17.05-.02,0-.02,0-.05,0h0c-9.13,.02-17.47,6.49-23.52,17.04-3.8,6.62-6.66,14.87-8.28,24.07,6.13-11.29,18.07-18.94,31.83-18.94,3.45,0,6.77,.49,9.93,1.41v-.03l.12,.05c9.38,2.71,17.19,9.1,21.76,17.53-1.62-9.22-4.47-17.48-8.27-24.09m-32.89,3.56l-.88-2.95-6.98,2.78-2.24,4.62c-1.26,.81-2.47,1.69-3.62,2.64l9.1-18.89,2.89-1.85,3.95,13.14c-.73,.14-1.48,.31-2.21,.52m9.98-1.15c-4.43,0-8.05-3.59-8.05-8.04s3.61-8.04,8.05-8.04c2.33,0,4.44,.99,5.91,2.59l-1.73,1.59c-1.04-1.12-2.54-1.82-4.19-1.82-3.13,0-5.69,2.54-5.69,5.68s2.56,5.69,5.69,5.69c1.65,0,3.15-.7,4.19-1.83l1.73,1.58c-1.48,1.61-3.58,2.6-5.92,2.6m18.96,5.67l-2.55-8.67-2.42,5.99c-.4-.17-.81-.35-1.2-.52l-1.73-8.98-2.33,7.65c-.73-.2-1.48-.37-2.22-.53l4-13.13,1.92,1.29,1.66,7.88,1.98-4.94,1.4,1.12,4.42,14.92c-.94-.74-1.92-1.42-2.92-2.08m-35.32-7.76l4.85-1.92-1.5-4.98-3.35,6.9Zm3.35-6.9l-3.35,6.9,4.85-1.92-1.5-4.98Zm0,0l-3.35,6.9,4.85-1.92-1.5-4.98Zm5.32,91.83c-.85-.16-1.94,.18-2.15,1.36-.17,1.05,.53,1.89,1.61,2.08,1.22,.22,1.96-.64,2.09-1.39,.14-.78-.25-1.81-1.55-2.04m.89-4.33c-1.06-.2-1.8,.26-1.95,1.06-.1,.65,.37,1.46,1.39,1.64,.93,.17,1.64-.3,1.78-1.07,.14-.84-.47-1.49-1.22-1.63m0,0c-1.06-.2-1.8,.26-1.95,1.06-.1,.65,.37,1.46,1.39,1.64,.93,.17,1.64-.3,1.78-1.07,.14-.84-.47-1.49-1.22-1.63m-.89,4.33c-.85-.16-1.94,.18-2.15,1.36-.17,1.05,.53,1.89,1.61,2.08,1.22,.22,1.96-.64,2.09-1.39,.14-.78-.25-1.81-1.55-2.04m0,0c-.85-.16-1.94,.18-2.15,1.36-.17,1.05,.53,1.89,1.61,2.08,1.22,.22,1.96-.64,2.09-1.39,.14-.78-.25-1.81-1.55-2.04m.89-4.33c-1.06-.2-1.8,.26-1.95,1.06-.1,.65,.37,1.46,1.39,1.64,.93,.17,1.64-.3,1.78-1.07,.14-.84-.47-1.49-1.22-1.63m9.3,.43c-.6,.06-1.89,.42-1.76,2,.13,1.66,1.25,1.92,2.15,1.85,.84-.07,1.71-.69,1.6-1.98-.1-1.25-.76-1.98-1.99-1.87m11.83-.53c-.41-1.18-1.22-1.72-2.38-1.31-.58,.19-1.73,.88-1.22,2.37,.53,1.57,1.68,1.55,2.53,1.26,.8-.28,1.49-1.07,1.07-2.32m0,0c-.41-1.18-1.22-1.72-2.38-1.31-.58,.19-1.73,.88-1.22,2.37,.53,1.57,1.68,1.55,2.53,1.26,.8-.28,1.49-1.07,1.07-2.32m-11.83,.53c-.6,.06-1.89,.42-1.76,2,.13,1.66,1.25,1.92,2.15,1.85,.84-.07,1.71-.69,1.6-1.98-.1-1.25-.76-1.98-1.99-1.87m-9.3-.43c-1.06-.2-1.8,.26-1.95,1.06-.1,.65,.37,1.46,1.39,1.64,.93,.17,1.64-.3,1.78-1.07,.14-.84-.47-1.49-1.22-1.63m-.89,4.33c-.85-.16-1.94,.18-2.15,1.36-.17,1.05,.53,1.89,1.61,2.08,1.22,.22,1.96-.64,2.09-1.39,.14-.78-.25-1.81-1.55-2.04m0,0c-.85-.16-1.94,.18-2.15,1.36-.17,1.05,.53,1.89,1.61,2.08,1.22,.22,1.96-.64,2.09-1.39,.14-.78-.25-1.81-1.55-2.04m.89-4.33c-1.06-.2-1.8,.26-1.95,1.06-.1,.65,.37,1.46,1.39,1.64,.93,.17,1.64-.3,1.78-1.07,.14-.84-.47-1.49-1.22-1.63m9.3,.43c-.6,.06-1.89,.42-1.76,2,.13,1.66,1.25,1.92,2.15,1.85,.84-.07,1.71-.69,1.6-1.98-.1-1.25-.76-1.98-1.99-1.87m11.83-.53c-.41-1.18-1.22-1.72-2.38-1.31-.58,.19-1.73,.88-1.22,2.37,.53,1.57,1.68,1.55,2.53,1.26,.8-.28,1.49-1.07,1.07-2.32m0,0c-.41-1.18-1.22-1.72-2.38-1.31-.58,.19-1.73,.88-1.22,2.37,.53,1.57,1.68,1.55,2.53,1.26,.8-.28,1.49-1.07,1.07-2.32m-11.83,.53c-.6,.06-1.89,.42-1.76,2,.13,1.66,1.25,1.92,2.15,1.85,.84-.07,1.71-.69,1.6-1.98-.1-1.25-.76-1.98-1.99-1.87m-9.3-.43c-1.06-.2-1.8,.26-1.95,1.06-.1,.65,.37,1.46,1.39,1.64,.93,.17,1.64-.3,1.78-1.07,.14-.84-.47-1.49-1.22-1.63m-.89,4.33c-.85-.16-1.94,.18-2.15,1.36-.17,1.05,.53,1.89,1.61,2.08,1.22,.22,1.96-.64,2.09-1.39,.14-.78-.25-1.81-1.55-2.04m7.08-7.77c-13.74,0-25.68-7.65-31.81-18.91,1.63,9.17,4.47,17.41,8.27,24.04,6.05,10.54,14.39,17.02,23.54,17.02h.19c9.07-.07,17.34-6.53,23.36-17.02,3.8-6.62,6.64-14.86,8.26-24.04-6.12,11.27-18.07,18.91-31.8,18.91m-15.55,10.58l-2.27-.78,2.38-6.99c-.52,.2-1.31,.2-2.47-.2l-.44-.15,.23-.63v-.02s.44-1.3,.44-1.3l.34,.11c1.72,.6,3.08-.56,3.24-1.03l2.06,.71-3.51,10.28Zm12.79-5.37c-.17,.94-.73,1.68-1.77,1.95,1.05,.73,1.58,1.54,1.33,2.96-.24,1.38-1.59,3.37-4.75,2.79-3.07-.54-3.8-2.56-3.54-4.05,.1-.54,.35-2,2.3-2.46-.86-.57-1.24-1.36-1.07-2.37,.33-1.87,2.15-2.7,4.22-2.33,2.47,.45,3.55,2.01,3.29,3.53m6.54,8.13c-1.86,.16-3.33-.62-3.85-2.06l1.68-.63v.02c.35,.73,1.08,1.14,2.06,.93,.94-.2,1.88-.9,1.72-3.21l-.04-.02c-.49,.77-1.4,1.04-2.22,1.1-2.31,.2-3.79-1.27-3.94-3.11-.24-2.7,1.42-4.1,3.78-4.29,4.18-.34,4.58,3.74,4.7,5.28,.35,4.24-1.72,5.78-3.9,5.98m11.74-2.31c-1.77,.62-3.37,.22-4.23-1.04l1.48-1.03v.02c.52,.62,1.33,.84,2.2,.41,.88-.44,1.62-1.35,.88-3.55l-.03-.02c-.28,.89-1.11,1.36-1.87,1.62-2.19,.76-3.98-.31-4.58-2.04-.87-2.56,.38-4.32,2.62-5.08,3.96-1.36,5.35,2.5,5.86,3.96,1.38,4.04-.26,6.05-2.33,6.75m-2.97-9.01c-.58,.19-1.73,.88-1.22,2.37,.53,1.57,1.68,1.55,2.53,1.26,.8-.28,1.49-1.07,1.07-2.32-.41-1.18-1.22-1.72-2.38-1.31m-9.45,1.84c-.6,.06-1.89,.42-1.76,2,.13,1.66,1.25,1.92,2.15,1.85,.84-.07,1.71-.69,1.6-1.98-.1-1.25-.76-1.98-1.99-1.87m-9.3-.43c-1.06-.2-1.8,.26-1.95,1.06-.1,.65,.37,1.46,1.39,1.64,.93,.17,1.64-.3,1.78-1.07,.14-.84-.47-1.49-1.22-1.63m-.89,4.33c-.85-.16-1.94,.18-2.15,1.36-.17,1.05,.53,1.89,1.61,2.08,1.22,.22,1.96-.64,2.09-1.39,.14-.78-.25-1.81-1.55-2.04m0,0c-.85-.16-1.94,.18-2.15,1.36-.17,1.05,.53,1.89,1.61,2.08,1.22,.22,1.96-.64,2.09-1.39,.14-.78-.25-1.81-1.55-2.04m.89-4.33c-1.06-.2-1.8,.26-1.95,1.06-.1,.65,.37,1.46,1.39,1.64,.93,.17,1.64-.3,1.78-1.07,.14-.84-.47-1.49-1.22-1.63m9.3,.43c-.6,.06-1.89,.42-1.76,2,.13,1.66,1.25,1.92,2.15,1.85,.84-.07,1.71-.69,1.6-1.98-.1-1.25-.76-1.98-1.99-1.87m11.83-.53c-.41-1.18-1.22-1.72-2.38-1.31-.58,.19-1.73,.88-1.22,2.37,.53,1.57,1.68,1.55,2.53,1.26,.8-.28,1.49-1.07,1.07-2.32m0,0c-.41-1.18-1.22-1.72-2.38-1.31-.58,.19-1.73,.88-1.22,2.37,.53,1.57,1.68,1.55,2.53,1.26,.8-.28,1.49-1.07,1.07-2.32m-11.83,.53c-.6,.06-1.89,.42-1.76,2,.13,1.66,1.25,1.92,2.15,1.85,.84-.07,1.71-.69,1.6-1.98-.1-1.25-.76-1.98-1.99-1.87m-9.3-.43c-1.06-.2-1.8,.26-1.95,1.06-.1,.65,.37,1.46,1.39,1.64,.93,.17,1.64-.3,1.78-1.07,.14-.84-.47-1.49-1.22-1.63m-.89,4.33c-.85-.16-1.94,.18-2.15,1.36-.17,1.05,.53,1.89,1.61,2.08,1.22,.22,1.96-.64,2.09-1.39,.14-.78-.25-1.81-1.55-2.04m0,0c-.85-.16-1.94,.18-2.15,1.36-.17,1.05,.53,1.89,1.61,2.08,1.22,.22,1.96-.64,2.09-1.39,.14-.78-.25-1.81-1.55-2.04m.89-4.33c-1.06-.2-1.8,.26-1.95,1.06-.1,.65,.37,1.46,1.39,1.64,.93,.17,1.64-.3,1.78-1.07,.14-.84-.47-1.49-1.22-1.63m9.3,.43c-.6,.06-1.89,.42-1.76,2,.13,1.66,1.25,1.92,2.15,1.85,.84-.07,1.71-.69,1.6-1.98-.1-1.25-.76-1.98-1.99-1.87m0,0c-.6,.06-1.89,.42-1.76,2,.13,1.66,1.25,1.92,2.15,1.85,.84-.07,1.71-.69,1.6-1.98-.1-1.25-.76-1.98-1.99-1.87m-9.3-.43c-1.06-.2-1.8,.26-1.95,1.06-.1,.65,.37,1.46,1.39,1.64,.93,.17,1.64-.3,1.78-1.07,.14-.84-.47-1.49-1.22-1.63m-.89,4.33c-.85-.16-1.94,.18-2.15,1.36-.17,1.05,.53,1.89,1.61,2.08,1.22,.22,1.96-.64,2.09-1.39,.14-.78-.25-1.81-1.55-2.04" fill="#fff"></path><path d="M133.26,58.7c-7.3-11.82-17.32-19-28.25-18.99-10.95-.01-20.95,7.17-28.26,18.99-7.29,11.82-11.85,28.2-11.83,46.31-.01,18.1,4.54,34.48,11.83,46.29,7.31,11.8,17.32,18.99,28.26,18.98,10.94,.01,20.95-7.18,28.25-18.98,7.31-11.81,11.85-28.19,11.84-46.29,0-18.11-4.53-34.49-11.84-46.31m-28.25,107.83c-20.5-.11-36.52-27.76-36.55-61.52,.03-33.76,16.05-61.42,36.55-61.54,20.5,.12,36.52,27.78,36.54,61.54-.02,33.76-16.03,61.41-36.54,61.52m1.87-58.17v-7.84h9.86v-27.27c3.3,1.21,6.33,2.93,9.03,5.03v22.24h12.81c.2,1.48,.33,2.96,.33,4.49,0,1.12-.07,2.25-.18,3.35h-12.96v23.35c-2.71,2.11-5.74,3.83-9.04,5.05v-28.38l-9.86-.02Zm-6.32-36.93v67.15c-2.18-.29-4.3-.78-6.34-1.45V72.88c2.04-.68,4.15-1.17,6.34-1.45m-12.66,4.34v58.46c-2.28-1.34-4.41-2.93-6.32-4.76v-48.94c1.91-1.82,4.04-3.4,6.32-4.76m-16.78,29.25c0-5.9,1.49-11.43,4.14-16.27v32.51c-2.64-4.83-4.14-10.35-4.14-16.24" fill="#e0071b"></path></g><g><g><g><path d="M64.49,23.81l.85,1.54-4.65,2.57,.73,1.33,4.13-2.28,.84,1.53-4.13,2.28,1.02,1.84-1.81,1-3.44-6.23,6.46-3.57Z" fill="#fff"></path><path d="M76.23,26.51l-1.13-.99-4.06,1.65-.12,1.5-2.06,.84,.72-7.97,2.64-1.07,6.07,5.21-2.05,.83Zm-5.05-1.07l2.6-1.06-2.35-2.05-.25,3.11Z" fill="#fff"></path><path d="M86.83,21.37l-1.23-4.95,1.99-.49,1.71,6.91-2.93,.73-5.3-3.94,1.23,4.95-2,.5-1.71-6.91,2.94-.73,5.3,3.94Z" fill="#fff"></path><path d="M96.85,14.62l8.57-.35,.07,1.75-3.25,.13,.22,5.36-2.06,.08-.22-5.36-3.26,.13-.07-1.75Z" fill="#fff"></path><path d="M107.92,17.84c.2-2.35,1.94-3.6,4.93-3.34,2.98,.26,4.49,1.79,4.29,4.13-.2,2.35-1.95,3.62-4.93,3.36-2.99-.26-4.49-1.79-4.29-4.15Zm7.07,.61c.11-1.23-.53-2.05-2.29-2.2-1.75-.15-2.52,.53-2.62,1.78-.11,1.25,.54,2.07,2.28,2.22,1.75,.15,2.53-.55,2.64-1.79Z" fill="#fff"></path><path d="M129.41,17.57l-4.18,2.13,2.62,4.82-2.53-.57-1.82-3.36-1.99,1.01-.32,1.41-2.01-.46,1.57-6.95,2.02,.45-.7,3.12,4.34-2.29,3.02,.68Z" fill="#fff"></path><path d="M139.29,20.99l-.55,1.52-5-1.81-.39,1.07,4.81,1.74-.55,1.52-4.81-1.74-.39,1.07,5,1.8-.55,1.52-6.94-2.51,2.42-6.7,6.94,2.51Z" fill="#fff"></path><path d="M146.5,30.14l2.34-4.54,1.83,.94-3.27,6.33-2.69-1.39-1.39-6.47-2.34,4.54-1.84-.95,3.27-6.33,2.7,1.39,1.39,6.47Z" fill="#fff"></path></g><g><path d="M57.53,179.5c-.31,.51,0,1.15,1.6,2.12,1.47,.88,1.97,.87,2.2,.49,.27-.44,.04-.69-1.7-1.9-2.37-1.66-3.16-2.81-2.35-4.16,.77-1.27,2.49-1.02,4.6,.25,2.35,1.41,3.27,2.94,2.51,4.33l-1.85-1.11c.32-.54-.14-1.1-1.51-1.92-1.3-.78-1.72-.74-1.92-.41-.23,.38,0,.67,1.57,1.8,2.14,1.52,3.5,2.55,2.54,4.15-.94,1.56-2.66,1.15-4.83-.16-2.47-1.49-3.6-2.93-2.72-4.59l1.85,1.12Z" fill="#fff"></path><path d="M66.2,183.1c.94-2.17,2.98-2.79,5.74-1.6,2.75,1.19,3.69,3.12,2.76,5.28-.94,2.17-3,2.81-5.75,1.62-2.76-1.19-3.69-3.12-2.75-5.3Zm6.52,2.83c.49-1.14,.14-2.11-1.48-2.82-1.61-.7-2.56-.29-3.05,.85-.5,1.15-.14,2.13,1.46,2.83,1.61,.7,2.58,.28,3.07-.87Z" fill="#fff"></path><path d="M82.54,185.26c2.52,.71,3.65,2.19,3.36,4.01l-2.11-.59c.04-.67-.45-1.38-1.72-1.73-1.47-.41-2.38,.11-2.72,1.31-.34,1.21,.18,2.14,1.64,2.55,1.27,.35,2.06,0,2.37-.61l2.11,.59c-.7,1.72-2.43,2.41-4.96,1.71-2.75-.77-3.9-2.47-3.25-4.82,.66-2.34,2.52-3.19,5.27-2.42Z" fill="#fff"></path><path d="M91.13,187.38l-1.26,7-2.03-.37,1.26-7,2.03,.37Z" fill="#fff"></path><path d="M93.28,191.41c.19-2.35,1.92-3.6,4.91-3.36,2.98,.24,4.5,1.77,4.31,4.11-.19,2.35-1.93,3.62-4.91,3.38-2.99-.24-4.5-1.77-4.3-4.13Zm7.07,.58c.1-1.23-.54-2.04-2.3-2.19-1.75-.14-2.51,.55-2.62,1.79-.1,1.25,.55,2.06,2.29,2.21,1.75,.14,2.53-.56,2.63-1.81Z" fill="#fff"></path><path d="M107.35,193.3c.03,.6,.64,.96,2.51,.86,1.71-.09,2.12-.38,2.09-.83-.03-.52-.35-.59-2.47-.62-2.89-.05-4.2-.56-4.28-2.14-.08-1.48,1.49-2.24,3.95-2.36,2.74-.14,4.36,.6,4.5,2.18l-2.15,.11c-.03-.63-.73-.83-2.33-.75-1.51,.08-1.84,.35-1.82,.73,.02,.44,.37,.56,2.31,.62,2.62,.06,4.33,.15,4.43,2.02,.1,1.82-1.56,2.44-4.09,2.57-2.88,.15-4.63-.42-4.83-2.29l2.16-.11Z" fill="#fff"></path><path d="M117.06,193.29l1.97-.29,.22,1.53-1.97,.29-.23-1.53Z" fill="#fff"></path><path d="M124.91,185.93c2.55-.62,4.26,.12,4.9,1.85l-2.13,.52c-.29-.61-1.07-.98-2.35-.67-1.48,.36-2.02,1.26-1.73,2.48,.3,1.22,1.21,1.78,2.68,1.42,1.28-.31,1.8-1.01,1.77-1.7l2.13-.52c.23,1.84-.94,3.3-3.49,3.92-2.78,.68-4.62-.24-5.2-2.61-.58-2.36,.63-4.01,3.41-4.69Z" fill="#fff"></path><path d="M132.62,187.73c-.87-2.2,.14-4.08,2.93-5.19,2.78-1.1,4.82-.4,5.68,1.79,.87,2.2-.14,4.11-2.92,5.21-2.79,1.1-4.82,.4-5.69-1.81Zm6.61-2.61c-.45-1.15-1.39-1.6-3.03-.95-1.63,.64-2.02,1.6-1.56,2.76,.46,1.17,1.41,1.61,3.03,.97,1.63-.64,2.02-1.62,1.56-2.78Z" fill="#fff"></path><path d="M145.61,186.25l-3.58-6.16,2.78-1.62,4.52,2.84-.24-5.33,2.78-1.62,3.58,6.16-1.78,1.03-2.59-4.46,.28,5.81-1.65,.96-4.91-3.11,2.6,4.46-1.79,1.04Z" fill="#fff"></path></g></g><path d="M48.34,171.86c-18.95-16.08-30.98-40.07-30.98-66.86S30.03,52.95,49.85,36.88" fill="none" stroke="#e0071b" stroke-miterlimit="10" stroke-width="2.22"></path><path d="M160.16,36.89c19.82,16.07,32.48,40.61,32.48,68.11s-12.03,50.79-30.98,66.87" fill="none" stroke="#e0071b" stroke-miterlimit="10" stroke-width="2.22"></path></g></g></g></g></svg>