<svg xmlns="http://www.w3.org/2000/svg" id="Layer_2" viewBox="0 0 210 210"><g id="Layer_1-2"><g><g><circle cx="105" cy="105" r="105" fill="#f6b817"></circle><path d="M105,5.32c54.96,0,99.68,44.72,99.68,99.68s-44.72,99.68-99.68,99.68S5.32,159.96,5.32,105,50.04,5.32,105,5.32M105,0C47.01,0,0,47.01,0,105s47.01,105,105,105,105-47.01,105-105S162.99,0,105,0h0Z" fill="#971a2e"></path></g><g><path d="M103.55,169.42c-12.08-7.25-22.27-16.55-30.3-27.65-7.39-10.23-12.64-21.57-15.61-33.71l-.26-1.07-.94-4.61c-2.11-11.57-2.08-23.36,.09-35.06l.35-1.88,1.86-.39c.13-.03,12.42-2.62,23.33-8.75,15.56-8.75,20.81-14.29,20.87-14.35l2.08-2.27,2.08,2.28s5.29,5.58,20.86,14.34c10.93,6.13,23.2,8.72,23.32,8.74l1.86,.39,.35,1.87c2.17,11.71,2.2,23.49,.09,35.06l-.3,1.66-.91,4.02c-2.97,12.14-8.22,23.47-15.62,33.71-8.02,11.1-18.21,20.4-30.29,27.65l-1.45,.87-1.45-.87Z" fill="#1d1c1a"></path><path d="M151.07,67.37s-12.82-2.65-24.34-9.08c-16.54-9.26-21.74-14.95-21.74-14.95,0,0-5.19,5.68-21.74,14.95-11.51,6.43-24.33,9.08-24.33,9.08-2.36,12.69-2.09,25.4,.59,37.51h90.97c2.68-12.11,2.95-24.82,.59-37.51Z" fill="#f6b817"></path><path d="M104.99,167.82c23.95-14.3,39.71-36.68,45.23-61.62H59.76c5.51,24.94,21.27,47.32,45.22,61.62Z" fill="#971a2e"></path><g><path d="M142.27,97.18c-.25-.32-.53-.66-.82-1.01-1.31-1.58-4.21-5.48-4.21-5.48,0-12.66-2.27-15.01-4.6-17-2.06-1.75-5.33-2.65-8.85-3.19-.96-.15-2.01-.22-3.22-.22s-2.35,.06-3.5,.13c-.95,.06-17.45,.75-22.75-.15-2.3-.39-5.51,.06-7.41,.29-.88,.1-5.64,.87-6.2-.04-.11-.17-.09-.54-.06-.96,.07-.67,.34-1.48-.18-2.2-.71-.99-1.49-2.07-1.92-2.07-.13,0-1.31,.97-1.6,1.26-.48,.48-.63,1.28-.61,2.2,.02,.57-.02,.46-.07,.5-.07,.08-3.11,.08-3.88,.13,0-.16-.03-.94-.54-1.69-.33-.48-.61-2.09-.61-2.09,0,0-1.1,1.91-1.47,2.42-.42,.56-.84,1.14-1.09,1.81-.1,.25-.11,.56-.13,.87-.01,.21-.04,.67-.13,.74-.58,.42-.91,1.01-.96,1.75-.01,.21,.04,.5,.11,.83,.04,.21,.11,.55,.11,.71-.05,.03-.11,.07-.18,.11-.51,.34-1.23,.8-1.18,1.61,.07,1.24,.35,1.72,.75,2.39,.11,.19,.22,.38,.35,.61,.17,.33,.25,.8,.32,1.26,.1,.64-.5,1.35-.09,1.75,.53,.53,1.92,.56,2.53,.56,.17,0,.8-.02,.96-.02,.23,0,.41,.01,.57,.04,1.16,.23,2.32,.33,3.45,.42,1.55,.13,3.01,.24,4.48,.68,2.72,.8,5.4,1.91,8.18,3.4,.15,.08,.29,.15,.43,.23,1.03,.53,1.25,.46,1.74,1.88,.48,1.42-.41,12.53-.61,13.68-.31,1.85-.9,2.98-1.86,3.33-1.29,.47-1.82,1.48-2.33,2.46-.16,.32-.14,.7-.34,1.02,0,0-.42,.46-.28,.58,.14,.12,1.45-.2,1.45-.2,.45,.03-.04,.26,.41,.26,1.09,0,2.43,0,3.78-.79,.57,0,.19,.73,.71,.63,1.62-.3,1.77-1.54,1.97-2.73,.33-2.01,.28-2.36,.51-2.54,.22-.18,.94,.12,1.13-.1,.15-.16-.02-1.62,.07-2.94,.12-1.88,.64-4.08,1.2-5.91l.03-.09c.12-.4,.31-.89,.51-1.4,.53-1.39,1.17-3.07,1.09-4.43,.58,.1,.67,.14,1,.59,.05,.07,.14,.22,.23,.37,.64,1.04,.97,1.34,1.39,1.34,.04,0,.09,0,.13-.02,.69-.18,1.06-.76,1.45-1.53,.38-.75,.79-1.53,1.43-1.68,.03,0,.06-.01,.09-.01,.52,0,1.45,.47,1.97,1.28,1.16,1.8,2.15,.54,2.25,.39,.13-.21,1.06-1.74,1.29-2.09,.28-.43,.45-.48,.51-.48,.01,0,.02,0,.03,0,.56,.09,3.03,3.05,3.9,2.85,.85-.09,1.8-3.34,2.32-3.34,.03,0,.05,0,.08,.01,.13,.11,.42,.55,.61,.85,.66,.99,.8,1.65,1.32,1.65,.16,0,.45-.14,.63-.57,.05-.11,.25-.6,.27-.65,.02,.02,.2,.62,.6,.73-.08,.04-.18,.08-.27,.14,0,0-.81,.55-.85,1.2v.07c-.02,.23-.06,.61,.19,1.03,.09,.14,.19,.3,.29,.43-.01,.03-.03,.06-.04,.09-.11,.07-.22,.14-.31,.22-.04,.01-.11,.03-.16,.05-.22,.07-.43,.13-.61,.28-.12,.11-.46,.4-.74,1.05l-.61-.61c-.38-.67-.52-.78-.73-.87-.11-.04-.47-.16-.61-.19,0,0-.02,0-.1-.05l-.04-.03-.03-.02c-.24-.11-.45-.16-.65-.16-.36,0-.66,.17-.81,.46-.05,.09-.08,.18-.08,.28-.14-.09-.31-.16-.5-.16h-.1s-.08,.02-.08,.02c-.29,.06-.46,.2-.56,.34-.02,0-.04,.02-.05,.02-.22,.11-.38,.33-.42,.58-.04,.3,.09,.6,.35,.82,.79,.67,.94,.7,1.06,.75,.09,.02,.19,.06,1.42,.12,.46,.84,.94,1.73,1.07,1.9,.08,.12,.82,.96,1.4,1.08,.07,.02,.14,.03,.21,.03,.22,0,.49-.08,.75-.22,.03,.19,0,.41-.02,.48-.01,.05-.03,.11-.04,.17-.9,.21-1.86,.55-2.48,.88-1.68,.93,.25,3.88,.68,4.74-.07,.04-.13,.07-.19,.11-.72-.42-1.67-.37-2.04,0-.03-.02-.05-.05-.07-.07-.2-.15-.79-.5-1.06-.67-.44-.47-.63-.58-.72-.62-.36-.22-1.06-.47-1.65-.61-.12-1.26-.21-1.55-.28-1.69,0-.04,.14-1.15,.12-1.85,.38,.07,.88,.15,1.27,.15,.23,0,.41-.03,.55-.08,.39-.1,1.02-.32,1.29-.74l.06-.09,.02-.11c.03-.09,.2-.91-.29-1.69-.34-.54-1.28-1.53-1.81-2.02,.02-.3,.04-.58,.04-.59,.02-.24-.05-.49-.32-.78-.09-.08-.72-.81-.9-.91-.17-.11-.45-.18-.68-.18-.08,0-.16,0-.23,.03-.62,.13-.56,1.08-.54,1.16-.08-.04-.16-.09-.25-.12-.21-.23-.52-.37-.84-.43-.16-.12-.39-.23-.69-.23-.02,0-.04,0-.07,0-.4,.02-.41,.06-.6,.22-.3,.06-.57,.24-.77,.49-.18,.1-.38,.27-.55,.57-.17,.15-.37,.39-.53,.81l-.06,.16c-.14,.37-.3,.79-.18,1.22,0,0,0,.02,.01,.04-.34,.09-.83,.29-1.1,.82-.12,.23-.24,.55-.35,.83-.15,.01-1.89,.22-1.85,1.04,.02,.25,.13,.51,.37,.68-.16,.28-.17,.57-.02,.81,.13,.21,.29,.37,.49,.44,.06,.21,.16,.42,.31,.61,.17,.22,.36,.38,.51,.49-.33,.11-.67,.26-1,.5-.48,.33-1.2,1.04-.57,2.14,.1,.18,.4,.51,1.92,2.01-.05,.06-1.26,2.26,.71,2.35,.45,.75,1.97-.33,2.02-.36,.11,.02,2.16,.03,1.62-1.55,.14-.02,.85-.22,.88-.22,.23,.1,.74,.31,1.03,.33,.14,.02,.36,.02,.52,.02,.21,0,.71,0,.96-.05,.06-.01,.14-.03,.22-.05,.21,.35,.55,.77,.97,1.02,.52,.3,1.7,.82,2.09,.99,.08,.08,.91,.77,1.45,.77,1.73,0,1.2-1.58,1.23-1.67,.06-.16,.13-.55,.17-.99,.18,0,.33-.01,.44-.01h.05c.19,.01,.44,.04,.62,.06l.13,.02s.05,0,.08,0c.13,.03,.32,.07,.54,.07,.25,0,.49-.06,.7-.17,.72-.4,.63-1.12,.6-1.44v-.02c-.04-.22-.09-1.04-.11-1.35,0-.2,0-.42-.02-.62,.04,.02,.07,.04,.08,.05,.3,.24,.74,.52,1.15,.55,.04,.5,.26,3.25,1.95,3.25,.18,0,1.25-.04,1.57-.35,.16,.05,2.68-.11,1.67-2.31,0-.02-.02-.05-.05-.09-.2-.4-.4-.75-.62-1,.01-.45,0-.65-.06-.81,.06-.17,.13-.4,.13-.61,0-.33-.28-1.24-.81-1.9-.05-.28-.12-.58-.19-.86,.21-.05,.45-.17,.67-.43,.12-.14,.39-.52,.45-.59l.06-.08,.03-.09c.03-.09,.32-.87,.14-1.7-.14-.59-.39-1.49-.45-1.7-.06-.35-.26-1.28-.92-1.68,.02-.06,.04-.13,.07-.21,.07-.09,.14-.21,.2-.35,.2,.19,.33,.31,.35,.33,2.03,1.82,4.56,4.07,5.05,6.52,.28,1.41,.21,3.03-.19,4.58-.09,.33-.17,.52-.24,.57-.09,.05-.31,.06-.59,.08-.12,0-.27,0-.43,.01-.69,.05-1.17,.79-1.59,1.44-.19,.31-.44,.55-.57,.78-.13,.23,.08,.6,.2,.68,.13,.08,1.38,.37,1.76,.37,.11,0,.21-.01,.31-.03,.27,.1,.59,.15,.96,.15,1.09,0,2.46-.45,2.85-1.21,.65-1.29,1.1-2.69,1.54-4.05,.04-.15,.09-.31,.14-.46,.1-.3,.22-.64,.36-.98,.48-1.25,1.29-2.58,.93-3.8-.19-.65-.85-1.28-1.26-1.83-.36-.49-1.75-2.3-2.17-2.93,1.3,1.25,4.89,3.11,5.8,5.28,.32,.76,0,3.95-.07,4.81-.03,.4-.05,.81-.06,1.23-.04,1.31-.42,1.54-1.73,1.68-1.14,.12-1.66,1.8-1.94,2.7-.02,.05-.03,.1-.04,.14l-.13,.42,.44,.08c.17,.03,.36,.06,.56,.1,.82,.15,2.2,.66,3.17,.66,1.15,0,1.96-.27,2.47-.83,.66-.72,.91-2.01,1.14-3.14,.09-.43,.55-1.95,.73-2.5,1.08-3.47,2.15-4.8,.33-6.8Zm-73.25-16.73c-.4,.25-.54-.44-.54-.44-.11-.27-.12-.57,.04-.68,.29,.19,.66,.18,.76,.36,.12,.19-.05,.64-.26,.76Z" fill="#c6c1c0"></path><g><path d="M142.26,97.17c-.25-.32-.53-.66-.82-1-1.3-1.59-4.2-5.49-4.2-5.49,0-12.65-2.27-15.01-4.6-17-2.07-1.75-5.33-2.64-8.86-3.19-.95-.15-2.01-.22-3.22-.22s-2.35,.07-3.5,.13c-.95,.06-17.46,.74-22.75-.15-2.3-.39-5.51,.06-7.41,.29-.87,.11-5.64,.86-6.21-.04-.1-.17-.09-.55-.05-.96,.06-.67,.34-1.47-.18-2.19-.72-.99-1.5-2.07-1.93-2.07-.13,0-1.31,.96-1.6,1.26-.48,.48-.64,1.28-.62,2.19,.02,.58-.02,.47-.06,.51-.08,.07-3.11,.07-3.88,.13,0-.16-.02-.94-.54-1.69-.34-.49-.62-2.1-.62-2.1,0,0-1.1,1.91-1.47,2.42-.42,.56-.83,1.14-1.09,1.81-.09,.26-.11,.57-.13,.87,0,.21-.04,.67-.13,.73-.59,.42-.9,1.01-.96,1.75-.02,.21,.04,.5,.11,.82,.04,.22,.1,.55,.1,.71-.05,.03-.11,.07-.17,.11-.52,.34-1.23,.79-1.18,1.61,.07,1.24,.35,1.73,.74,2.39,.11,.19,.22,.38,.35,.61,.18,.34,.25,.81,.32,1.27,.11,.65-.5,1.35-.08,1.75,.54,.53,1.93,.57,2.53,.57,.16,0,.79-.02,.95-.02,.23,0,.42,0,.57,.04,1.16,.23,2.32,.33,3.46,.42,1.55,.12,3.01,.24,4.47,.68,2.72,.79,5.4,1.9,8.18,3.4,.16,.08,.3,.15,.44,.23,1.03,.53,1.25,.46,1.74,1.88s-.41,12.53-.62,13.68c-.3,1.85-.89,2.97-1.86,3.33-1.29,.47-1.82,1.48-2.32,2.45-.17,.32-.14,.7-.35,1.01,0,0-.42,.46-.27,.59,.14,.12,1.44-.2,1.44-.2,.45,.02-.04,.26,.42,.26,1.09,0,2.43,0,3.78-.78,.57,0,.19,.72,.72,.63,1.62-.3,1.78-1.54,1.97-2.73,.34-2.01,.29-2.35,.51-2.54,.23-.17,.94,.12,1.13-.1,.15-.16,0-1.62,.07-2.94,.12-1.89,.64-4.08,1.2-5.91l.03-.09c.12-.41,.31-.89,.51-1.41,.53-1.39,1.16-3.07,1.09-4.43,.58,.11,.68,.14,.99,.6,.06,.07,.14,.22,.24,.38,.64,1.04,.97,1.33,1.39,1.33,.04,0,.09,0,.12-.02,.7-.18,1.06-.75,1.45-1.52,.39-.75,.78-1.54,1.43-1.68,.03,0,.06,0,.09,0,.53,0,1.45,.47,1.98,1.28,1.16,1.8,2.15,.54,2.24,.39,.14-.21,1.06-1.74,1.3-2.1,.28-.43,.46-.48,.51-.48h.03c.56,.09,3.03,3.05,3.9,2.85,.85-.09,1.8-3.34,2.32-3.34,.03,0,.05,0,.08,0,.13,.11,.42,.55,.61,.84,.67,.99,.8,1.65,1.32,1.65,.17,0,.46-.14,.64-.57,.04-.12,.25-.61,.27-.66,.02,.02,.2,.62,.61,.72-.08,.04-.18,.08-.27,.14,0,0-.8,.55-.84,1.2v.07c-.03,.23-.06,.61,.19,1.02,.09,.14,.2,.31,.3,.44-.02,.03-.03,.06-.04,.09-.11,.07-.22,.14-.31,.22-.04,0-.11,.03-.16,.05-.22,.07-.43,.13-.61,.28-.12,.12-.46,.41-.73,1.05l-.62-.61c-.38-.68-.52-.78-.72-.87-.11-.04-.48-.16-.62-.19,0,0-.02,0-.1-.04l-.04-.03-.03-.02c-.24-.11-.46-.16-.66-.16-.36,0-.66,.18-.8,.47-.05,.08-.08,.18-.08,.28-.14-.09-.31-.16-.51-.16h-.1l-.08,.02c-.29,.06-.46,.2-.56,.34-.02,0-.04,.02-.05,.02-.23,.12-.38,.33-.42,.59-.04,.3,.09,.6,.35,.82,.79,.67,.94,.7,1.06,.74,.09,.02,.19,.06,1.42,.12,.46,.83,.93,1.73,1.07,1.9,.08,.12,.82,.95,1.39,1.08,.07,0,.14,.02,.21,.02,.23,0,.49-.08,.75-.22,.03,.19,0,.41-.02,.48,0,.06-.03,.12-.04,.18-.89,.21-1.85,.55-2.47,.88-1.68,.92,.25,3.87,.69,4.74-.06,.04-.12,.07-.18,.1h0c-.72-.42-1.68-.36-2.05,0l-.07-.07c-.2-.15-.79-.51-1.06-.67-.45-.47-.64-.58-.72-.63-.37-.22-1.06-.47-1.65-.61-.12-1.26-.22-1.56-.28-1.69,0-.04,.14-1.15,.11-1.85,.38,.06,.87,.14,1.27,.14,.23,0,.41-.02,.56-.08,.39-.1,1.02-.32,1.29-.73l.06-.1,.02-.11c.03-.09,.2-.91-.3-1.69-.34-.54-1.28-1.53-1.81-2.03,.02-.3,.04-.59,.04-.59,.02-.24-.05-.49-.32-.78-.09-.08-.72-.8-.9-.9-.17-.11-.45-.18-.68-.18-.08,0-.16,0-.23,.03-.63,.13-.57,1.07-.55,1.16-.07-.05-.16-.09-.25-.13-.21-.23-.52-.37-.83-.43-.16-.12-.39-.23-.69-.23h-.07c-.4,.02-.41,.06-.61,.22-.3,.06-.57,.23-.76,.49-.18,.1-.39,.28-.56,.57-.18,.15-.38,.39-.54,.81l-.06,.16c-.14,.37-.3,.78-.19,1.21,0,0,0,.02,0,.04-.34,.09-.82,.29-1.09,.82-.12,.23-.25,.55-.36,.82-.15,0-1.89,.22-1.85,1.04,.02,.26,.14,.52,.37,.69-.15,.28-.17,.57-.02,.8,.13,.22,.3,.38,.49,.45,.07,.21,.17,.43,.31,.62,.17,.22,.36,.38,.52,.49-.33,.11-.67,.26-.99,.51-.49,.33-1.2,1.03-.58,2.14,.1,.18,.4,.51,1.93,2.01-.06,.06-1.26,2.26,.71,2.35,.45,.75,1.97-.33,2.03-.36,.11,.02,2.15,.03,1.62-1.55,.14-.02,.84-.22,.88-.22,.23,.1,.73,.3,1.03,.33,.13,.02,.36,.02,.52,.02,.21,0,.71,0,.95-.05,.07,0,.14-.03,.23-.05,.21,.35,.55,.77,.97,1.02,.52,.29,1.69,.81,2.09,.99,.08,.08,.9,.76,1.45,.76,1.74,0,1.2-1.58,1.23-1.67,.06-.16,.13-.55,.17-.99,.18,0,.34,0,.44,0h.05c.2,0,.44,.04,.63,.06l.13,.02s.05,0,.07,0c.13,.03,.32,.07,.55,.07,.25,0,.49-.05,.7-.17,.71-.4,.63-1.12,.6-1.44v-.02c-.03-.12-.05-.43-.07-.73,0,0,0,0,0,0,.05,0,.09,0,.15,0,.3,.02,.56,.06,.85,.05,.11-.01,.18-.02,.23-.04,0,0,0,0,0,0,.15,.97,.58,2.59,1.88,2.59,.18,0,1.25-.04,1.58-.35,.15,.06,2.67-.11,1.67-2.3,0-.02-.02-.05-.05-.09-.2-.41-.4-.75-.62-1v-.21c0-.31-.02-.47-.06-.61,.06-.17,.12-.4,.12-.61,0-.33-.28-1.24-.8-1.91-.05-.28-.13-.58-.2-.85,.21-.05,.46-.17,.68-.43,.12-.15,.4-.52,.45-.6l.07-.08,.03-.09c.03-.09,.32-.86,.13-1.7-.13-.6-.39-1.49-.45-1.71-.06-.35-.26-1.27-.91-1.68,.02-.05,.04-.12,.07-.21,.07-.09,.14-.2,.2-.34,.2,.18,.33,.3,.35,.32,2.04,1.82,4.56,4.07,5.05,6.52,.28,1.4,.21,3.03-.19,4.58-.08,.33-.17,.52-.24,.57-.09,.06-.31,.07-.59,.08-.13,0-.27,0-.43,0-.7,.05-1.17,.78-1.59,1.44-.2,.31-.44,.56-.58,.77-.13,.23,.08,.61,.21,.69,.13,.07,1.38,.37,1.76,.37,.11,0,.21,0,.3-.03,.27,.1,.6,.15,.96,.15,1.09,0,2.45-.46,2.85-1.21,.66-1.29,1.1-2.69,1.54-4.05,.04-.15,.09-.31,.14-.46,.1-.3,.23-.64,.37-.98,.48-1.24,1.28-2.57,.92-3.79-.19-.65-.84-1.28-1.26-1.83-.37-.5-1.75-2.3-2.17-2.94,1.3,1.25,4.9,3.12,5.81,5.28,.32,.76,0,3.95-.07,4.82-.03,.4-.05,.81-.06,1.22-.04,1.31-.43,1.55-1.73,1.68-1.15,.12-1.67,1.81-1.95,2.7-.02,.05-.03,.1-.04,.15l-.14,.42,.45,.08c.17,.03,.36,.06,.56,.1,.82,.16,2.19,.67,3.17,.67,1.14,0,1.96-.28,2.46-.83,.67-.72,.91-2.01,1.14-3.14,.09-.43,.56-1.96,.72-2.5,1.08-3.48,2.15-4.81,.33-6.8Zm-8.83,2.14c.35-1.41,1.37-1.3,1.06-.2-.14,.49-2.62,7.69-2.64,7.22-.07,.08-.12,.02-.11-.05,.16-1.35,1.57-6.48,1.69-6.97Zm-65.64-23.15c.36-.31,1.16,0,.96,.78-.27,.31-1.34-.2-.96-.78Zm.72,3.17c.29,.19,.66,.18,.75,.36,.12,.19-.04,.64-.26,.76-.39,.25-.54-.45-.54-.45-.11-.27-.12-.57,.04-.68Zm6.76,1.59c-1.21-.26-5.04,1.31-5.88,1.14-.82-.17-.99-.25-.99-.39,0-.13,.18-.29,.25-.36,.02,0,.08-.08,.16-.16,.05,.06,.1,.04,.14-.05,.05-.12,.13-.11,.17,0l.03,.1c.05,.12,.14,.13,.21,.02l.08-.16c.07-.1,.19-.1,.25,0l.06,.1c.07,.11,.19,.13,.28,.02l.15-.16c.08-.1,.2-.09,.26,.03l.02,.05c.06,.11,.12,.21,.16,.2,.04,0,.07-.1,.08-.24l.07-.84c.02-.13,.07-.14,.12-.02l.29,.66c.06,.12,.21,.2,.33,.18,0,0,1.14-.22,1.71-.68s1.28,.03,1.58-.2c.4-.33,.2-.61,.19-.73,0,0-.03-.18-.52-.23-.49-.04-2.89-.1-2.89-.1-.13,0-.25,.1-.28,.23l-.12,.68c-.02,.12-.08,.14-.13,0l-.28-.64c-.05-.12,.18-.19-.33-.18-.33,.14-.75-.21-1.19-.65-1.59-1.61,.28-.61,.16-1.61-.03-.29-.11-.42-.15-.47,.21,.1,1.01,.5,1.28,.87,.22,.2,1.07-.35,1.37-.24,1.21,.44,2.17,.56,3.8,1.47,.35,.19-.12,1.24-.02,1.25,.21,.07,.8-1.2,.5-1.42-3.52-2.58-6.01-2.81-6.01-2.84,.72-.74,1.34-1.9,1.76-2.9,.07-.17-.16-.38-.08-.53,.21-.43,.45-.78,.77-1,1.11-.75,2.9,.02,3.53,.69,.25,.27,.55,.81,.74,1.41-.62,.12-.97-.56-1.62-.99-.68-.45-1.13-.7-1.57-.58-.6,.17-1.07,1.01-1.07,1.01,.48-.47,1.09-.59,1.09-.59,.49,0,.98,.42,1.37,.83-.18-.13-.38-.23-.55-.24-.6-.06-.67,.74-.67,.74l-.31,.38s.05,.09,.51,.09c.36,0,1.41,0,1.97-.11h0c.37,0,.72-.26,.87-.43,.08,.26,.14,.53,.17,.78,.04,.3,.08,.62,.09,.94,.03,.43-.14,.55-.46,.38-.22-.12-.56-.4-.91-.2s.04,1.26,.59,1.9c.28,.34,.64,.74,.88,1.14,0,.12,.02,.2,.02,.24-.09,1.49-.64,2.64-2.04,2.35Zm-.4-7.61c0,.18-.19,.33-.33,.33-.15,0-.27-.15-.27-.33s.12-.33,.27-.33c.14,0,.33,.15,.33,.33Zm7.89,6.26c.16,.63,.47,.94,.67,1.17,.11-.19,.2-.43,.28-.68-.18,1.73,.73,2.71,1.19,3.18-1.19-.51-1.78-1.37-2.13-3.67Zm.98,.33c.03-.06,.04-.13,.06-.2,.17,.96,.82,1.29,1.02,1.44,.15-.18,.23-.52,.27-.86,.15,1.52,.65,2.43,.72,2.57-.21-.16-1.82-1.47-2.08-2.95Zm3.01,2.17s-.85-.15-1.66-1.82c.06-.53,.03-1.05,.03-1.05,0,0-.22,1.31-.54,1.17-.25-.11-.6-.56-.75-.8,.07-.28,.12-.55,.15-.74,.17,.43,.45,.62,.63,.77,.27-.24,.75-1.33,.87-1.6-.14,.22-.68,1-.92,.84-.24-.14-.56-.72-.69-.97,.21-.39,.38-.78,.44-.93,.15,.48,.3,.66,.56,.88,.17-.12,.31-.31,.42-.52,.04,.24,.11,.47,.2,.69h0c.35,.86,.98,1.56,1.42,2.1-.76,0-1.72-1.24-1.72-1.24,.23,1.83,1.57,3.23,1.57,3.23Zm-1.4-4.9c.23-.46,.34-.97,.36-1.09-.08,.18-.52,1.19-.82,1.03-.23-.12-.53-.67-.7-1.01,.17-.42,.3-.89,.35-1.14,.09,.15,.18,.25,.27,.33,.09-.07,.16-.18,.22-.31,.13,.71,.29,.95,.45,1.09,.13-.03,.24-.15,.32-.29,.23,1.09,.68,2.02,1.19,2.6-.67-.07-1.08-.52-1.63-1.21Zm2.55-3.72c-.21-.15-.35-.84-.35-.84-.08,.72,.28,1.29,.35,1.41,.15-.03,.26-.13,.34-.27,.08,.57,.5,1.49,.76,1.67-.86-.11-1.62-.48-1.94-.85,.11-.24,.15-.47,.15-.56-.09,.13-.4,.6-.58,.47-.2-.15-.35-.84-.35-.84-.11,.94,.13,1.24,.34,1.48,.1-.07,.19-.15,.25-.24-.02,.67,.27,1.57,.66,1.94-1.13-.32-1.15-.57-1.65-1.22,.14-.32,.2-.68,.2-.68,0,0-.18,.3-.37,.45-.1,.06-.19,.09-.27,.04-.13-.09-.27-.34-.37-.56,.13-.33,.19-.7,.19-.79-.04,.08-.18,.34-.33,.46-.07,.06-.15,.09-.21,.05-.22-.14-.41-.82-.41-.82-.03,.59,.06,.95,.19,1.19-.14,.3-.5,1.01-.72,.89-.25-.14-.53-.81-.6-.98,.18,1.25,.32,1.66,.63,1.91,.11-.11,.22-.29,.31-.5,.07,.27,.12,.49,.17,.67h0c-.14,.22-.75,1.08-1.01,.92-.29-.18-.56-1.09-.56-1.09,.03,.4,.07,.71,.12,.95-.11,.22-.42,.79-.59,.77-.22-.03-.68-.85-.68-.85,.1,.8,.49,1.17,.68,1.41,.34-.19,.54-.95,.6-1.27,.1,.45,.25,.66,.49,.83,.16-.13,.33-.37,.48-.64,0,.32,.05,.57,.13,.76-.18,.42-.55,1.23-.74,1.08-.27-.21-.56-1.06-.56-1.06,0,.23,.03,.44,.07,.62-.03,.36-.14,1.23-.57,1.05-.32-.12-.85-1.1-.85-1.1,.3,1.51,.57,1.71,1.06,2.01,.14-.13,.24-.31,.3-.52-.02,.67,.06,1.33,.42,1.93-1.18-.51-1.63-1.72-1.86-2.09-.04,.22-1.28,1.71-2.86,1.61,.8-.77,1.01-1.28,1.01-3.27-.97,3.3-2.88,3.2-3.08,3.18,.13,0,1.72-.07,1.97-3.62,.06-.91-.69-.74-.71-1.79,0-.24,.5,.1,.46-.43-.07-.98-.04-1.83-.04-1.83-.19-3.77-3.41-4.09-4.98-4.24-1.48-.13-3.38,1.04-3.59,1.19,.19-.2,.39-.37,.61-.51v-.02c.14-.17,.32-.46,.44-.78,.19-.52,.71-1.85,.71-2.36,.05,.15,.56,1.65,.55,2.09,0,.23-.04,.36-.08,.43,.85-.19,1.81-.23,2.78-.2h.04c.69,.08,4.39,.73,5.1,5.27,.25-.92-.75-3.95-2.03-4.69-.11-.07-.41-.22-.44-.62,.09-.12,.14-.32,.14-.62,0,0,0,0,0-.02h0c.02-.28,0-.64-.06-1.07-.12-.99,.72-1.68,1.13-1.95,.42-.27,1.69,.88,1.47,1.81-.33-.92-1.1-1-1.1-1,0,0-.32-.11-.03,.51,.3,.63,.08,1.92-.29,2.28-.37,.36-.93,.14-.88,.36,.03,.17,.76,.71,2.15-.67-.27,.81-.2,1.74,1.29,1.95,1.89,.25,5.37,.05,7.85-.43,1.94-.48,5.02-.2,5.52,.04-.51-.02-.65,0-1.45,.12-.75,.12-1.33,.43-1.69,.3-.12-.04,.3,.41,.77,.71-.31,.11-1.78,.13-1.99,0-.12,.26,.15,1.34,.52,1.56-.71,.1-1.61-.17-2.1-.39,.11-.28,.13-.58,.13-.58,0,0-.38,.65-.58,.5Zm12.62,18.14c-.07,.07-.16,.29-.34,.06-.18-.24-.48-2.63-.48-2.63,0,0-.05-.24,.3-.28,.39-.03,.93-.14,1.12,0,.18,.14,.46,.63,.44,.92,0,.3-.98,1.85-1.04,1.93Zm1.73-9.55c-.29-.68-.78-2.64-.49-3.37,.17,.72,.6,2.24,.91,2.92,.5,1.03,1.11,2.36,1.52,2.92-.75-.26-1.67-1.81-1.95-2.47Zm4.74,8.09s-.34,.71-.5,.24c-.11-.32-.79-2.58-.67-3.07,.12-.49,1.71-.39,1.71-.39,.72,0,.89,.83,.89,1.09,0,.21-1.27,1.81-1.44,2.13Zm6.64-.34s-.55,1.13-.74,.64c-.13-.31-.97-2.89-.85-3.38,.13-.49,1.72-.39,1.72-.39,.71,0,.7,.83,.7,1.08,0,.21-.65,1.74-.81,2.05Zm9.19,3.99l-.86-.29c-.09-.03-.2-.23-.21-.4,0-.08,.32-.42,.5-.66-.03,.28,.04,.67,.15,.63,.15-.04,.12-.55,.16-.61,.08-.1,.14-.41,.11-.58,0-.06-.03-.1-.06-.13-.14-.08-.18-.14-.18-.16,0,0,0-.03,.03-.05h0s.05-.08,.08-.14c.05-.12,.02-.27-.03-.38-.04-.09-.3-.42-.45-.47-.12-.03-.2-.11-.2-.18,0-.03,0-.09,0-.13,.02-.12,.02-.23-.02-.29-.36-.51-.86-.54-1.02-.53,0-.09,.1-.17,.45-.17,.16,0,.7,.05,.85,.07,.35,.06,.36,.52,.36,.52,0,0,.15,.05,.35,.1,.21,.05,.16,.5,.16,.5l.33,.35s.18,.17,.18,.43c.23,.28,.13,.87,.13,.87,0,.19,0,.34-.04,.47-.08,.45-.26,.54-.26,.54,0,0-.09,.36-.15,.42-.05,.07-.24,.22-.37,.26Zm-.19,.81c.11,.09,.32,.15,.31,.3,0,.05-.02,.47-.1,.57-.24,.3-1.34,.67-1.69,.61-.03-.03-.25-.25-.16-.35,.08-.09,.29,.11,.35,.06,.06-.06-.44-.63-.28-.74,.18-.12,.4,.32,.5,.24,.1-.07,.06-.13,.03-.19,0-.03-.22-.43-.22-.43-.02-.02-.25-.38-.1-.45,.16-.05,.32,.21,.35,.25,.02,0,.31,.54,.44,.47,.12-.06-.23-.84-.23-.84-.02-.07-.16-.27-.09-.33s.15-.04,.35,.23c.02,.03,.54,.97,.63,.97,0,0,0-.21-.08-.36Zm-3.02-5.75s-.26,.61-.51,.24c-.35-.52-1.47-2.37-1.34-2.86,.12-.49,1.71-.39,1.71-.39,.72,0,.88,.84,.88,1.09,0,.21-.58,1.6-.74,1.92Zm-11.77,5.67h0c.07,.11,.14,.24,0,.18-.21-.32-.99-.56-1.01-.59-.05-.05,.09-.18,.53,.15,.25,.03,.41,.16,.49,.26Zm-.53-.34c-.09-.1-.3-.23-.57-.21,0-.03,0-.05-.03-.08,.14,.02,.49,.09,.6,.29Zm-1.4-.31h0v-.02c.1-.09,.17-.16,.34-.17,.19,0,.33,.11,.38,.17,.02,0,.02,.02,.03,.03,.03,.05,.04,.09,0,.09-.07,0-.12-.12-.13-.14-.05-.07-.23,.03-.12,.11,.03,.03,.07,.04,.12,.07,.06,.04,.03,.05,0,.04-.07-.02-.13-.03-.22-.03-.08,0-.16,0-.23,.04-.04,.02-.07,0-.03-.04,.04-.02,.08-.04,.11-.05,.16-.1-.1-.29-.14-.03-.03,.04-.06,.08-.08,.08-.09,0-.04-.1-.02-.14h0Zm-.02,0s-.07,.06-.08,.11c-.02,0-.31,.02-.46,.15,.22-.28,.49-.27,.54-.26Zm-.62,.38c.33-.24,.5-.23,.48-.13,0,.03-.4,.25-.55,.4-.13,.1-.32,.32-.35,.33-.04,0-.06-.05-.03-.15,0-.02,0-.05,.04-.09h0c.19-.31,.41-.36,.41-.36Zm-3.62,6.54c.33,.21,.23,.2,.59,.32,.38,.11,.35-.21,.66-.21,.15,0,.18-.13,.19-.29l.03-.02s.14-.13,.22-.41c.07,.37,.26,1.08,.13,1.28,0,0,0,0,0,0l-.06,.06c-.14,.12-.32,.25-.45,.31-.2,.08-.43,0-.43,0,0,0-.34-.14-.64-.52-.12-.15-.19-.35-.23-.54Zm4.25,6.96c-.03,.26-.54,.66-.99,.43-.12,0-1.03,.73-1.45,.58-.19-.04-.21-.16-.29-.19-.07-.02-.31,.04-.42-.09-.14-.18-.21-.4-.15-.62,.05-.19,.37-.07,.36-.13-.02-.07-.4-.03-.25-.39,.06-.13,.43,0,.43,0h.25s.05,0,.05-.02h0s.16-.38,.42-.53c.28-.15,.73-.35,.93-.36-.7-.18-1.36,.27-1.5,.56-.55-.53-2.29-2.23-2.41-2.44-.15-.25-.41-.73,.37-1.26,.86-.63,1.86-.59,2.21-.6,1.44,.85,2.32,3.56,2.43,3.83-.02,0-.03,0-.03,0-.04,0-.13,.05-.22,.08-.09-.16-1.9-3.87-3.48-3.38,1.09-.12,3.06,3.15,3.26,3.45,0,0,.02,.02,.02,.02,.07,.07,.28,.32,.36,.48,.09,.19,.13,.32,.09,.57Zm9.37,.52c-.08,.24-.07,.69-.07,.76,0,.09-.1,.44-.52,.44s-1.04-.66-1.04-.66c0,0-1.57-.69-2.15-1.01-.59-.34-.97-1.23-.97-1.23,0,0-.47,.14-.7,.19-.23,.04-1.05,.05-1.27,.02-.19-.02-.69-.21-.84-.29v-.03s-.04-1.47,1.13-2.59c-.15,.03-1.29,.4-1.56,2.69-.18,.07-.37,.15-.45,.15-.09,0-.29-.03-.47-.06-.21-.6-1.32-3.5-2.77-4.16,.11-.35,.43-.94,.43-.94v-1.2c-.03-.19-.06-1.13-.06-1.27,.09,.06,1.18-.17,1.42-.59,0,0-.76,.14-.95,.1-.35-.06-.44-.2-.46-.31,0-.03-.13-.87-.23-.87-.22,.03-.03,2.5,.02,3.12-.06,.17-.11,.35-.11,.35,0,0-.02,.07-.04,.16-.05-.32-.22-1.2-.22-1.2v-.06c-.02-.15-.06-.29-.15-.41-.14-.19-.37-.3-.52-.3,0,0,.6,.41,.53,.82-.08,.41-.15,.44-.15,.44l-.09-.09v.24c-.02,.12-.05,.17-.14,.16-.23,0-.4,.32-.65,.24-.23-.07-.35-.26-.5-.37-.14-.1,.07-.3,.07-.3,0,0,0-.09-.07-.13-.05-.04-.14,.16-.15,.21h0s0,.02,0,.03c-.05,.05-.15,.14-.21,.15-.07,.03-.17,0-.23-.11-.05-.1,.16-.31,.16-.31l.09-.52,.22-.05s.23,.08,.43,.05c.21-.04,.54-.42,.48-.44-.05-.03-.22,.23-.52,.23-.11,0-.22-.02-.35-.05h-.02s-.13,.07-.21,.09c-.03,0-.05,0-.07,0-.14,.02-.44,.04-.46-.21,0-.12,.28-.15,.36-.21,.15-.11,.81-.14,.95-.12,.17,0,.31,.09,.31,.09,0,0,.28-.84,.51-1.3,.2-.4,.67-.48,.92-.54,0,0,.02,0,.05,0,.18-.03,.77-.14,1.19-.14,.08,0,.15,0,.2,.02,.43,.1,.93,.27,.94,.2,0-.07-.61-.3-.89-.36-.05,0-.13,0-.23,0-.26,0-.6,.03-.75,.05,0,0-.22-.28-.29-.55-.07-.27,.09-.62,.23-.98,.14-.35,.28-.48,.36-.53-.04,.09,0,.17,.02,.23-.1,.24-.08,.55,.06,.79,.12,.21,.82,.8,.87,.76,.07-.04-.72-.74-.78-1.04-.13-.72,.84-1.35,1.15-1.38,.02,0,.06,.09,.24,.07,.22,0,.24-.07,.25-.07,.25-.03,1.43,.41,1.31,1.28-.05,.28-.16,.61-.11,.65,.05,.03,.1-.12,.22-.36,.12-.25,.13-.56,.02-.8,.07-.07,.08-.15,.04-.23,.16,.1,.5,.45,.71,1.58,0,.17-.25,.4-.36,.49h-.81c-.27,0-1.1,.35-1.05,.41,.06,.06,.67-.2,1.08-.25,.35-.05,.9,.03,1.14,.07,.06,0,.1,.02,.11,.02h0c.15,.02,.35,.07,.53,.12,0,0,0,0,0,0,.27,.44,.87,1.14,1.3,1.48,.19,.18,.34,.28,.41,.23-.13-.14-1.01-1.18-1.32-1.56-.05-.22-.84-1.46-.84-1.46,0,0-.07-.05-.18-.17-.11-.11-.32-.71-.36-.82-.04-.13,0-.26,.07-.33,.16-.16,.34,.31,.45,.47,.13,0,.26-.29,.26-.29,0,0-.14-.03-.19-.1-.04-.06-.04-.36-.02-.41,.02-.05,.14-.11,.14-.11l-.09-.26s-.17-.14-.24-.21c-.06-.06-.09-.29,0-.32,.11-.03,.37,.05,.44,.11,.08,.07,.65,.72,.73,.81,.09,.09,.09,.21,.09,.21,0,0-.03,.59-.08,.9,.33,.28,1.59,1.56,1.95,2.13,.36,.57,.22,1.18,.22,1.18-.18,.27-.92,.46-.92,.46-.37,.16-1.67-.13-1.92-.16-.08-1.11-.2-1.53-.27-1.53-.05,0-.16,.77-.16,.87,0,.02-.03,.53-.6,.44-.49-.08-.73-.17-.78-.19,.21,.38,1.12,.59,1.36,.9,.02,.03,.05,.14,.06,.24,0,0,0,.02,0,.03,0,.66-.11,1.69-.11,1.82,.29,.58,.32,1.76,.33,2.25,.67,0,1.89,.56,1.97,.64,.14,.07,.61,.57,.61,.57,0,0,.86,.5,1.07,.66,.11,.1,.41,.33,.63,.51,0,0,.14,.66,.13,.94,0,.05-.02,.07-.04,.08,0,0-.02,.02-.02,.03-.12,.12-.04,.58-.04,.58,0,0,.13-.27,.26-.41l.04-.04c.06-.06,.07-.1,.05-.32v-.05c0-.08-.07-.47-.09-.59h0s0,0,0-.03v-.03c-.02-.11-.05-.34-.06-.44,0-.07,.06-.21,.23-.29,.06-.02,.21,.02,.26,.15,.04,.12-.02-.19,.11-.2,.04,0,.22,.03,.37,.06h0s.09,.02,.12,.02c.32,.05,.51,.2,.63,.39,.16,.26,.16,.59,.15,.82,0,.07,0,.13,0,.18,0,.14-.03,.34-.06,.55-.04,.3-.08,.6-.13,.74Zm3.01-1.43c-.31,.17-.69,.02-.87,0-.17-.02-.53-.07-.8-.08-.09,0-.28,0-.5,0,0-.44-.09-.84-.26-1.1,.3-.17,.54-.3,.54-.3,0,0,.13-.05-.04-.29-.55-.72-2.14-3.46-1.23-4.17,.31-.26,1.62-.61,2.34-.78,.04,.1,.87,2.14,1.83,3.2-.06,.04-.24,.02-.44-.02,0,0-1.69-1.23-2.19-1.86-.08,.43,1.7,2.09,1.7,2.09,.02,.44,.04,1.15,.04,1.15,0,0,.08,1.12,.12,1.4,.03,.3,.08,.59-.23,.75Zm6.62-1.26c.08,.13,.6,.99-.35,1.33-.27,.1-.48-.07-.58-.17,.09-.21,.22-.69,.27-.89,.05-.22,.06-.94,.06-1.25,.25,.26,.54,.88,.6,.98Zm-.7-2.87c0,.17-.17,.52-.21,.61,.07,.17,.13,.76,.12,1.16h0c0,.53-.09,1.9-.43,2.33h0c-.27,.13-.75,.32-1.35,.35-1.49,.06-1.33-3.09-1.33-3.44,0-.06,0-.11,0-.15,0,.03,0,.05,0,.05,0,0,.54-1.85,.99-2.04,.47-.2,1.16-.11,1.16-.11,0,0-.53-.38-1.19-.28-.63,.09-1.06,2.01-1.11,2.25,0,0,0,.02,0,.02-.13,.37-.17,.39-.43,.44-.18,.03-.55-.21-.72-.33h0c-1.2-1.64-1.64-3.1-1.76-3.56l-.12-2.39v-.2s-.07-1.04-.07-1.04c0,0,.14,.06,.19,.02,.05-.05-.23-.3-.25-.61,0-.23,.25-.52,.2-.55-.04-.03-.14,.05-.14,.05,.02-.2,.04-.43,.05-.57,.02-.21,.29-.62,.29-.62-.6,.21-.71,.9-.71,.9l-.04,.54s-.06,.16-.06,.27c0,.13,.08,.27,.09,.27l.16,1.69c-.36,.38-.82,.54-1.01,.49-.24-.05-.82-.61-.97-.79-.14-.2-1.19-2.18-1.19-2.18,0,0-1.53-.06-1.65-.1-.13-.04-.67-.6-.78-.7-.11-.09-.21-.62,.34-.43,.21,.08,.55,.29,.6,.3,1.26,.2,1.22-.33,1.15-.37-.08-.05-.39-.2-.49-.33-.1-.14,0-.28,.49-.1,.14,.06,.73,.26,.81,.29,.25,.09,.43,.64,.43,.64l1.19,1.21c0,.41,.38,2.1,.45,2.05,.07-.04-.18-2.12-.18-2.12,.06-.1,.15-.21,.27-.32,.23-.76,.56-1.04,.69-1.15,.08-.07,.3-.12,.49-.18h0c.14,.05,.55,.15,1.21,.58,.1-.17-.56-.56-.95-.72,.13-.12,.45-.28,.45-.28,0,0,.1-.37,.16-.51,.07-.15,0-.28,0-.28,0,0-.26-.34-.41-.6-.15-.26-.13-.5-.09-.69,.05-.3,.4-.57,.52-.65,.12-.07,.33-.14,.33-.14,0,0,.45-.54,.7-.76,.08-.08,.2-.13,.33-.18,.04,0,.08-.03,.12-.04h0s.03,0,.05,0h0s.04-.02,.07-.02c.02,0,.04,0,.07,0,.19,0,.49,.05,.79,.4,.03,.03,.02,.17,0,.28,0,0-.06,.22,.22,.36,.19,.08,.29,.24,.36,.34,.02,.02,.03,.05,.05,.07,.03,.04,.05,.09,.03,.17,0,0,0,.03,0,.06,0,.07-.04,.1-.07,.12-.02,.03-.05,.07-.04,.13h0c.02,.06,.05,.16,.13,.22-.06,.06-.12,.08-.19,.08-.11,0-.2-.07-.2-.07,0,0-.02,.24,.24,.24,.11,0,.21-.06,.26-.11,0,.06,.02,.13-.02,.23-.32,0-.91,.66-.92,.85,0,.14,.06,.45,.19,.58-.04,.05-.08,.12-.08,.2-1.28,.09-1.76,.55-1.82,.78,.12-.04,1.05-.41,1.4-.47-.22,.21,.08,.6,.14,.67-.05-.02-.17-.08-.29,0-.25,.19,0,.59,.05,.68-.1,0-.17,.03-.21,.07-.13,.15,.12,.46,.3,.65,.09,.09-.3,.07-1.4-.75,.03,.8,1.36,1.28,1.78,1.29,0,0,1.64,3,1.75,3.22,0,0,0,0,0,0,.1,.38,.2,.8,.25,1.15,.51,.53,.78,1.42,.78,1.59Zm-.09-7.2s.3,1.06,.45,1.7c.15,.65-.11,1.29-.11,1.29,0,0-.31,.43-.43,.56-.11,.14-.24,.22-.42,.19-.14-.02-.52-.15-.66-.2v-.04s-1.3-2.41-1.3-2.41l-.05-.09s-.07-.09-.18-.19c-.03-.03,0-.07,.03-.06,.45,.05,1.23-.17,1.42-.23,.05,.06,1.3,1.53,1.39,1.46,.1-.06-1.26-1.85-1.27-1.85,0,0,.13-.74,.1-.83-.06-.17-.43-.44-.57-.44h-.03s-.05-.09-.06-.1l-.02-.04c-.1-.16-.17-.29-.23-.37,.26,.08,.51,.16,.52,.17h.14s.1,0,.62,.23c.51,.23,.66,1.25,.66,1.25Zm3.71,11.69c-.14,.19-.42-.12-.44-.31-.02-.19,.26-.67,.42-.83,.14-.16,.46-.16,.46-.16,.36-.02-.3,1.11-.44,1.3Zm1.07,.28c-.35,.14-.55-.1-.55-.1,0,0,.07-.8,.23-1.01,.11-.15,.32-.09,.32-.09,0,0,.62,.18,.83,.35,.24,.18-.49,.71-.83,.85Zm7.55,.21c-.14,.07-.2,.37-.21,.45-.09,.51,0,1.26-.08,1.35-.09,.15-.54,0-.6-.12-.05-.1,0-1.15,0-1.24,0-.23,.29-.42,.62-.56,.15-.05,.59-.1,.72-.34,.11,.22-.4,.44-.46,.46Zm5.77-8.66c-.43,1.6-1.83,5.97-2.46,8.43-.64,2.44-1.64,2.09-2.3,2.09s-.75-.53-.5-1.25c.23-.65,.63-.28,1-.42,.39-.14,.42-.23,.47-.85,.04-.55,.33-5.29,.06-7.77-.03-.24,1.95,1.08,1.93,.88-.1-1.04-1.54-1.99-1.62-2.07-1.52-1.57-9.88-7.31-12.51-12.23-.3-.56-4.92-7.65-5.32-8.42-1.19-2.24-.62-3.89,.12-4.91-1.78,1.28-2.62,2.92-1.82,4.57,1.32,2.71,3.33,6.2,3.91,6.75-.73-.38-1.99-2.2-6.76-1.12-2.14,.48-2.88,1.79-5.77,1.73-1.1-.02-2.56-3.55-3.18-5.15,0,1.94,1.42,5.02,1.77,5.56-1.7,.22-3.75-4.68-4.43-8.05-.17,2.08,1.22,7.12,2.3,8.1-2.38-.21-3.55-3.79-3.97-6.33-.34-1.31-1.33-1.49-2.46-1.85-.88-.23-1.58-.53-1.58-.49,0,.15,.08,.37,.1,.56,1.18,5.26-4.88,15.42-4.76,15.7,.04,.1,1.86-2.32,1.92-2.22,.51,.89-.63,3.86-1.69,7.31-1.08,3.49-.48,6.01-.85,6.76-.19-.07-.87-.23-.97,.04-.42,1.6-1.1,4.68-1.25,4.87-.11,.13-.26,.23-.45,.17,.06-.41-.79-.2-1.31-.07-.09,.03,.54-1.57,.46-1.57-.5,0-1.1,1.99-1.83,2.01-.63,.06-1.22,.15-1.25,.13,0-.06,1.21-2.26,1.3-2.42,.57-1,1.04,.21,1.55-2.2,.42-2.02,1.15-11.54,.97-15.76-.02-.42,1.23,3.22,1.24,2.52,.04-1.68-1.07-3.83-1.63-4.99-.93-1.96-1.19-3.27-.66-7.38,.6-4.58,3.6-6.75,5.58-7.63,.52-.14,2.68-.47,3.25,3.36,.26-1.45-.02-3.16-.9-3.86,.59,0,1.54,.02,2.58,.04,1.72,.03,3.66,.07,4.59,.12,.14-.02,.3-.03,.4-.02,1.24-.05,3.57,.06,5.77,.06,2.76,0,6.91-.48,7.41-.51,.69,0,3.01-.04,3.98,.05,.79-.02,3.23,.09,7.32,1.8,7.08,2.83,5.82,16.2,5.82,16.2,0,0-.84-8.76-2.83-12.1-1.09-1.85-4.11-4.22-4.37-3.8,4.67,3.29,5.36,9.31,5.62,10.15,.4,1.3,1.32,7.02,1.32,7.02,0,0,3.23,3.78,3.93,4.66,.53,.64,1.86,2,2.38,2.77,.18,.25,.49,.68,.39,1.06Z" fill="#1d1c1a"></path><path d="M119.73,91.25c0-.06-.13-.33-.3-.32s-.44,.29-.38,.31c.06,0,.07-.12,.23-.13,.18,0,.25,.16,.33,.18,.08,0,.12,.02,.12-.04Z" fill="#1d1c1a"></path><path d="M120.62,90.55c.15,.03,.31,.17,.31,.17,0,0-.05-.18-.23-.25-.25-.09-.3,.08-.3,.08,0,0,.06-.03,.21,0Z" fill="#1d1c1a"></path></g></g><path d="M72.52,122.21c0-3.08,0-3.65-.04-4.3-.04-.69-.2-1.01-.87-1.16-.16-.04-.51-.06-.79-.06-.22,0-.35-.04-.35-.18s.14-.18,.45-.18c1.08,0,2.35,.06,2.78,.06,.69,0,2.23-.06,2.86-.06,1.28,0,2.64,.12,3.73,.87,.57,.39,1.38,1.42,1.38,2.78,0,1.5-.63,2.88-2.68,4.54,1.8,2.27,3.2,4.08,4.4,5.33,1.14,1.18,1.97,1.32,2.27,1.38,.22,.04,.4,.06,.57,.06s.24,.06,.24,.16c0,.16-.14,.2-.38,.2h-1.93c-1.13,0-1.64-.1-2.17-.39-.87-.47-1.64-1.42-2.78-2.98-.81-1.11-1.74-2.49-2.01-2.8-.1-.12-.22-.14-.37-.14l-1.76-.04c-.1,0-.16,.04-.16,.16v.28c0,1.89,0,3.49,.1,4.34,.06,.59,.18,1.03,.79,1.12,.3,.04,.75,.08,.99,.08,.16,0,.24,.06,.24,.16,0,.14-.14,.2-.4,.2-1.18,0-2.68-.06-2.98-.06-.39,0-1.66,.06-2.47,.06-.26,0-.4-.06-.4-.2,0-.1,.08-.16,.33-.16,.3,0,.55-.04,.73-.08,.4-.08,.51-.53,.59-1.12,.1-.85,.1-2.45,.1-4.32v-3.57Zm2.39,1.6c0,.22,.04,.3,.18,.36,.43,.14,1.03,.2,1.54,.2,.81,0,1.07-.08,1.44-.34,.61-.45,1.2-1.38,1.2-3.04,0-2.88-1.91-3.71-3.1-3.71-.51,0-.87,.02-1.07,.08-.14,.04-.18,.12-.18,.28v6.16Zm10.7,.18c0-3.47,2.29-7.95,8.37-7.95,5.05,0,8.19,2.94,8.19,7.58s-3.24,8.31-8.39,8.31c-5.82,0-8.17-4.36-8.17-7.95Zm13.73,.38c0-4.54-2.62-7.36-5.94-7.36-2.33,0-4.99,1.3-4.99,6.35,0,4.22,2.33,7.56,6.22,7.56,1.42,0,4.7-.69,4.7-6.55Zm6-7.81c.06-.34,.18-.53,.34-.53s.28,.1,.55,.63l5.54,11.27,5.51-11.41c.16-.32,.26-.49,.45-.49s.3,.2,.37,.63l1.84,12.41c.18,1.28,.39,1.86,.99,2.05,.59,.18,1,.2,1.26,.2,.18,0,.33,.02,.33,.14,0,.16-.24,.22-.53,.22-.51,0-3.3-.04-4.11-.1-.47-.04-.59-.1-.59-.22,0-.1,.08-.16,.22-.22,.12-.04,.18-.3,.1-.87l-1.22-8.82h-.08l-4.42,9.04c-.47,.95-.57,1.14-.75,1.14s-.39-.41-.71-1.01c-.49-.93-2.09-4.03-2.33-4.6-.18-.43-1.4-2.82-2.11-4.34h-.08l-1.05,7.91c-.04,.36-.06,.63-.06,.95,0,.38,.26,.57,.61,.65,.37,.08,.65,.1,.85,.1,.16,0,.3,.04,.3,.14,0,.18-.18,.22-.49,.22-.85,0-1.76-.06-2.13-.06-.39,0-1.36,.06-2.01,.06-.2,0-.36-.04-.36-.22,0-.1,.12-.14,.32-.14,.16,0,.3,0,.61-.06,.57-.12,.73-.91,.83-1.6l2.01-13.06Zm22.22,9.91c-.1,0-.14,.04-.18,.16l-1.1,2.78c-.2,.51-.31,.99-.31,1.24,0,.36,.18,.63,.81,.63h.3c.24,0,.3,.04,.3,.16,0,.16-.12,.2-.34,.2-.65,0-1.52-.06-2.15-.06-.22,0-1.34,.06-2.39,.06-.26,0-.38-.04-.38-.2,0-.12,.08-.16,.24-.16,.18,0,.47-.02,.63-.04,.93-.12,1.32-.81,1.72-1.82l5.09-12.57c.24-.59,.36-.81,.57-.81,.18,0,.3,.18,.5,.65,.49,1.12,3.73,9.22,5.03,12.3,.77,1.82,1.36,2.11,1.78,2.21,.3,.06,.61,.08,.85,.08,.16,0,.27,.02,.27,.16,0,.16-.18,.2-.93,.2s-2.21,0-3.83-.04c-.37-.02-.61-.02-.61-.16,0-.12,.08-.16,.29-.18,.14-.04,.28-.22,.18-.47l-1.62-4.18c-.04-.1-.1-.14-.2-.14h-4.52Zm4.14-1.01c.1,0,.12-.06,.1-.12l-1.82-4.99c-.02-.08-.04-.18-.1-.18-.06,0-.1,.1-.12,.18l-1.87,4.97c-.02,.08,0,.14,.08,.14h3.73Z" fill="#1d1c1a"></path><path d="M73.05,121.76c0-3.08,0-3.65-.04-4.3-.04-.69-.2-1.01-.87-1.16-.16-.04-.51-.06-.79-.06-.22,0-.35-.04-.35-.18s.14-.18,.45-.18c1.07,0,2.35,.06,2.78,.06,.69,0,2.23-.06,2.86-.06,1.28,0,2.64,.12,3.73,.87,.57,.38,1.38,1.42,1.38,2.78,0,1.5-.63,2.88-2.67,4.54,1.8,2.27,3.2,4.08,4.4,5.33,1.14,1.18,1.97,1.32,2.27,1.38,.22,.04,.41,.06,.57,.06s.24,.06,.24,.16c0,.16-.14,.2-.38,.2h-1.93c-1.13,0-1.64-.1-2.17-.38-.87-.47-1.64-1.42-2.78-2.98-.81-1.11-1.74-2.49-2.01-2.8-.1-.12-.22-.14-.37-.14l-1.76-.04c-.1,0-.16,.04-.16,.16v.28c0,1.88,0,3.49,.1,4.34,.06,.59,.18,1.03,.79,1.12,.3,.04,.75,.08,.99,.08,.16,0,.24,.06,.24,.16,0,.14-.14,.2-.4,.2-1.18,0-2.68-.06-2.98-.06-.38,0-1.66,.06-2.47,.06-.26,0-.41-.06-.41-.2,0-.1,.08-.16,.33-.16,.3,0,.55-.04,.73-.08,.41-.08,.51-.53,.59-1.12,.1-.85,.1-2.45,.1-4.32v-3.57Zm2.39,1.6c0,.22,.04,.3,.18,.36,.43,.14,1.03,.2,1.54,.2,.81,0,1.07-.08,1.44-.34,.61-.45,1.2-1.38,1.2-3.04,0-2.88-1.91-3.71-3.1-3.71-.51,0-.87,.02-1.07,.08-.14,.04-.18,.12-.18,.29v6.16Zm10.7,.18c0-3.47,2.29-7.95,8.37-7.95,5.05,0,8.19,2.94,8.19,7.58s-3.24,8.31-8.39,8.31c-5.82,0-8.17-4.36-8.17-7.95Zm13.72,.39c0-4.54-2.62-7.36-5.94-7.36-2.33,0-4.99,1.3-4.99,6.34,0,4.22,2.33,7.56,6.22,7.56,1.42,0,4.7-.69,4.7-6.55Zm6-7.81c.06-.34,.18-.53,.35-.53s.28,.1,.55,.63l5.53,11.27,5.51-11.41c.16-.32,.26-.49,.45-.49s.3,.2,.37,.63l1.84,12.41c.18,1.28,.39,1.87,.99,2.05,.59,.18,.99,.2,1.26,.2,.18,0,.33,.02,.33,.14,0,.16-.24,.22-.53,.22-.51,0-3.31-.04-4.11-.1-.47-.04-.59-.1-.59-.22,0-.1,.08-.16,.22-.22,.12-.04,.18-.31,.1-.87l-1.22-8.82h-.08l-4.42,9.04c-.47,.95-.57,1.14-.75,1.14s-.39-.41-.71-1.01c-.49-.93-2.09-4.03-2.33-4.6-.18-.43-1.4-2.82-2.11-4.34h-.08l-1.06,7.91c-.04,.36-.06,.63-.06,.95,0,.39,.26,.57,.61,.65,.36,.08,.65,.1,.85,.1,.16,0,.3,.04,.3,.14,0,.18-.18,.22-.49,.22-.85,0-1.77-.06-2.13-.06-.39,0-1.36,.06-2.01,.06-.2,0-.36-.04-.36-.22,0-.1,.12-.14,.32-.14,.16,0,.3,0,.61-.06,.57-.12,.73-.91,.83-1.6l2.01-13.05Zm22.22,9.91c-.1,0-.14,.04-.18,.16l-1.09,2.78c-.2,.51-.3,.99-.3,1.24,0,.36,.18,.63,.81,.63h.3c.24,0,.3,.04,.3,.16,0,.16-.12,.2-.34,.2-.65,0-1.52-.06-2.15-.06-.22,0-1.34,.06-2.39,.06-.26,0-.39-.04-.39-.2,0-.12,.08-.16,.24-.16,.18,0,.47-.02,.63-.04,.93-.12,1.32-.81,1.72-1.82l5.09-12.57c.24-.59,.37-.81,.57-.81,.18,0,.3,.18,.51,.65,.49,1.12,3.73,9.22,5.03,12.3,.77,1.83,1.36,2.11,1.78,2.21,.3,.06,.61,.08,.85,.08,.16,0,.26,.02,.26,.16,0,.16-.18,.2-.93,.2s-2.21,0-3.83-.04c-.37-.02-.61-.02-.61-.16,0-.12,.08-.16,.28-.18,.14-.04,.28-.22,.18-.47l-1.62-4.18c-.04-.1-.1-.14-.2-.14h-4.52Zm4.13-1.01c.1,0,.12-.06,.1-.12l-1.82-4.99c-.02-.08-.04-.18-.1-.18s-.1,.1-.12,.18l-1.87,4.97c-.02,.08,0,.14,.08,.14h3.73Z" fill="#f6b817"></path><path d="M100.6,140.85c1.79,0,2.78,1.33,2.78,3.03,0,3.12-2.7,5.07-4.06,5.72-.05,.03-.11,.05-.2,.05-.04,0-.1-.06-.1-.11,0-.08,.08-.14,.13-.19,1.15-.7,2.86-2.52,2.86-5.15,0-1.97-.82-2.84-1.67-2.84-.79,0-1.32,.71-1.32,1.66,0,1.7,1.09,2.1,1.46,2.1s.61-.07,.75-.13c.12-.07,.18-.12,.22-.12s.09,.05,.09,.1c0,.03-.03,.1-.06,.12-.32,.35-.89,.51-1.45,.51-1.58,0-2.25-1.21-2.25-2.15,0-1.5,1.12-2.59,2.82-2.59Zm-8.75,2.01c0,.07,.05,.12,.09,.12,.04,0,.1-.02,.15-.04,.24-.1,1.07-.53,1.28-.53,.16,0,.16,.13,.16,.4v3.23c.02,1.07,0,2.01-.04,2.5-.03,.36-.09,.51-.44,.59-.2,.05-.76,.08-.88,.08-.04,0-.09,.03-.09,.11s.07,.1,.19,.1c.7,0,1.63-.03,1.88-.03,.3,0,1,.03,1.84,.03,.12,0,.17-.02,.17-.1s-.06-.11-.1-.11c-.09,0-.56-.03-.73-.07-.35-.08-.41-.24-.44-.6-.04-.49-.04-1.43-.04-2.5v-2.06c0-1.7,.07-2.8,.07-2.89,0-.11-.03-.23-.13-.23-.09,0-.19,.08-.29,.15-.39,.29-2.5,1.69-2.55,1.71-.06,.03-.11,.09-.11,.16Zm12.51,6.36c0,.09,.08,.16,.15,.16h4.32c.7,0,.87-.03,.96-.33,.11-.38,.32-1.41,.32-1.59,0-.11,0-.21-.09-.21-.07,0-.1,.04-.13,.18-.13,.52-.5,.9-1.26,.99-.41,.06-1.71,.07-1.89,.07h-.75c-.06,0-.08-.04-.02-.08,1.42-1.15,3.79-3.03,3.79-5.18,0-1.3-.83-2.37-2.76-2.37-.97,0-1.56,.2-1.99,.42-.12,.08-.13,.12-.13,.22,0,.32,.05,1.25,.07,1.35,.01,.13,.04,.21,.1,.21,.11,0,.14-.1,.14-.21,0-.29,.2-.81,.46-1.07,.33-.31,.7-.4,1.17-.4,.55,0,1.51,.36,1.51,2.11,0,2.35-2.19,4.08-3.73,5.45-.11,.1-.22,.2-.22,.29Zm6.95-6.32c0,.11,0,.17,.09,.17,.07,0,.1-.06,.11-.14,.02-.18,.16-.54,.36-.67,.26-.18,.73-.2,1.03-.2h2.85c-1.52,2.57-2.93,5.85-3.24,6.92-.06,.18-.08,.35-.08,.46,0,.1,.03,.13,.15,.13,.5,0,1.39-.46,1.39-.68,0-.15-.02-.22,0-.41,.16-1.42,1.88-5.84,2.8-7.15,.03-.04,.08-.13,.08-.2,0-.06-.06-.09-.27-.09h-3.52c-1.17,0-1.42-.11-1.49-.11s-.11,.05-.11,.16-.17,1.41-.17,1.82Z" fill="#1d1c1a"></path><path d="M100.95,140.53c1.79,0,2.78,1.34,2.78,3.03,0,3.12-2.7,5.07-4.06,5.72-.05,.03-.11,.05-.2,.05-.04,0-.1-.06-.1-.11,0-.08,.08-.14,.13-.19,1.15-.7,2.86-2.52,2.86-5.15,0-1.97-.82-2.84-1.67-2.84-.79,0-1.32,.71-1.32,1.66,0,1.7,1.09,2.1,1.46,2.1s.61-.07,.75-.13c.12-.07,.18-.12,.22-.12s.09,.05,.09,.1c0,.03-.03,.1-.06,.12-.32,.35-.89,.51-1.45,.51-1.58,0-2.25-1.21-2.25-2.15,0-1.5,1.12-2.59,2.82-2.59Zm-8.75,2.01c0,.07,.05,.12,.09,.12,.04,0,.1-.02,.15-.04,.24-.1,1.07-.53,1.28-.53,.17,0,.17,.13,.17,.4v3.23c.02,1.07,0,2.01-.04,2.5-.03,.36-.09,.51-.44,.59-.2,.05-.76,.08-.88,.08-.04,0-.09,.03-.09,.11s.07,.1,.19,.1c.7,0,1.63-.03,1.88-.03,.3,0,1,.03,1.84,.03,.12,0,.17-.02,.17-.1s-.06-.11-.1-.11c-.09,0-.56-.03-.73-.07-.35-.08-.41-.24-.44-.6-.04-.49-.04-1.43-.04-2.5v-2.06c0-1.7,.07-2.8,.07-2.89,0-.11-.03-.23-.13-.23-.09,0-.19,.08-.29,.15-.39,.29-2.5,1.69-2.55,1.71-.06,.03-.11,.09-.11,.16Zm12.51,6.36c0,.09,.08,.16,.15,.16h4.32c.7,0,.87-.03,.96-.33,.11-.38,.32-1.41,.32-1.59,0-.11,0-.21-.09-.21-.07,0-.1,.04-.13,.18-.13,.52-.5,.9-1.26,.99-.41,.06-1.71,.07-1.89,.07h-.75c-.06,0-.08-.04-.02-.08,1.42-1.15,3.79-3.03,3.79-5.18,0-1.3-.83-2.37-2.76-2.37-.97,0-1.56,.2-1.99,.42-.12,.08-.13,.12-.13,.22,0,.32,.05,1.25,.07,1.34,0,.13,.04,.21,.1,.21,.11,0,.14-.1,.14-.21,0-.29,.2-.81,.46-1.07,.33-.31,.7-.4,1.17-.4,.55,0,1.51,.36,1.51,2.11,0,2.35-2.19,4.08-3.73,5.45-.11,.1-.22,.2-.22,.29Zm6.95-6.32c0,.11,0,.17,.09,.17,.07,0,.1-.06,.11-.14,.02-.18,.16-.54,.36-.67,.26-.18,.73-.2,1.03-.2h2.85c-1.52,2.57-2.93,5.85-3.24,6.92-.06,.18-.08,.35-.08,.46,0,.1,.03,.13,.15,.13,.5,0,1.39-.46,1.39-.68,0-.15-.02-.22,0-.41,.16-1.42,1.88-5.84,2.8-7.15,.03-.04,.08-.13,.08-.2,0-.06-.06-.09-.27-.09h-3.52c-1.17,0-1.42-.11-1.49-.11s-.11,.05-.11,.16-.17,1.41-.17,1.82Z" fill="#c6c1bf"></path></g><g><g><g><path d="M64.49,23.81l.85,1.54-4.65,2.57,.73,1.33,4.13-2.28,.84,1.53-4.13,2.28,1.02,1.84-1.81,1-3.44-6.23,6.46-3.57Z" fill="#1d1c1a"></path><path d="M76.23,26.51l-1.13-.99-4.06,1.65-.12,1.5-2.06,.84,.72-7.97,2.64-1.07,6.07,5.21-2.05,.83Zm-5.05-1.07l2.6-1.06-2.35-2.05-.25,3.11Z" fill="#1d1c1a"></path><path d="M86.83,21.37l-1.23-4.95,1.99-.49,1.71,6.91-2.93,.73-5.3-3.94,1.23,4.95-2,.5-1.71-6.91,2.94-.73,5.3,3.94Z" fill="#1d1c1a"></path><path d="M96.85,14.62l8.57-.35,.07,1.75-3.25,.13,.22,5.36-2.06,.08-.22-5.36-3.26,.13-.07-1.75Z" fill="#1d1c1a"></path><path d="M107.92,17.84c.2-2.35,1.94-3.6,4.93-3.34,2.98,.26,4.49,1.79,4.29,4.13-.2,2.35-1.95,3.62-4.93,3.36-2.99-.26-4.49-1.79-4.29-4.15Zm7.07,.61c.11-1.23-.53-2.05-2.29-2.2-1.75-.15-2.52,.53-2.62,1.78-.11,1.25,.54,2.07,2.28,2.22,1.75,.15,2.53-.55,2.64-1.79Z" fill="#1d1c1a"></path><path d="M129.41,17.57l-4.18,2.13,2.62,4.82-2.53-.57-1.82-3.36-1.99,1.01-.32,1.41-2.01-.46,1.57-6.95,2.02,.45-.7,3.12,4.34-2.29,3.02,.68Z" fill="#1d1c1a"></path><path d="M139.29,20.99l-.55,1.52-5-1.81-.39,1.07,4.81,1.74-.55,1.52-4.81-1.74-.39,1.07,5,1.8-.55,1.52-6.94-2.51,2.42-6.7,6.94,2.51Z" fill="#1d1c1a"></path><path d="M146.5,30.14l2.34-4.54,1.83,.94-3.27,6.33-2.69-1.39-1.39-6.47-2.34,4.54-1.84-.95,3.27-6.33,2.7,1.39,1.39,6.47Z" fill="#1d1c1a"></path></g><g><path d="M57.53,179.5c-.31,.51,0,1.15,1.6,2.12,1.47,.88,1.97,.87,2.2,.49,.27-.44,.04-.69-1.7-1.9-2.37-1.66-3.16-2.81-2.35-4.16,.77-1.27,2.49-1.02,4.6,.25,2.35,1.41,3.27,2.94,2.51,4.33l-1.85-1.11c.32-.54-.14-1.1-1.51-1.92-1.3-.78-1.72-.74-1.92-.41-.23,.38,0,.67,1.57,1.8,2.14,1.52,3.5,2.55,2.54,4.15-.94,1.56-2.66,1.15-4.83-.16-2.47-1.49-3.6-2.93-2.72-4.59l1.85,1.12Z" fill="#1d1c1a"></path><path d="M66.2,183.1c.94-2.17,2.98-2.79,5.74-1.6,2.75,1.19,3.69,3.12,2.76,5.28-.94,2.17-3,2.81-5.75,1.62-2.76-1.19-3.69-3.12-2.75-5.3Zm6.52,2.83c.49-1.14,.14-2.11-1.48-2.82-1.61-.7-2.56-.29-3.05,.85-.5,1.15-.14,2.13,1.46,2.83,1.61,.7,2.58,.28,3.07-.87Z" fill="#1d1c1a"></path><path d="M82.52,185.25c2.52,.71,3.65,2.19,3.36,4.01l-2.11-.59c.04-.67-.45-1.38-1.72-1.73-1.47-.41-2.38,.11-2.72,1.31-.34,1.21,.18,2.14,1.64,2.55,1.27,.35,2.06,0,2.37-.61l2.11,.59c-.7,1.72-2.43,2.41-4.96,1.71-2.75-.77-3.9-2.47-3.25-4.82,.66-2.34,2.52-3.19,5.27-2.42Z" fill="#1d1c1a"></path><path d="M91.13,187.38l-1.26,7-2.03-.37,1.26-7,2.03,.37Z" fill="#1d1c1a"></path><path d="M93.28,191.41c.19-2.35,1.92-3.6,4.91-3.36,2.98,.24,4.5,1.77,4.3,4.11-.19,2.35-1.93,3.62-4.92,3.38-2.99-.24-4.5-1.77-4.3-4.13Zm7.07,.58c.1-1.23-.54-2.04-2.3-2.19-1.75-.14-2.51,.55-2.62,1.79-.1,1.25,.55,2.06,2.29,2.21,1.75,.14,2.53-.56,2.63-1.81Z" fill="#1d1c1a"></path><path d="M107.35,193.3c.03,.6,.64,.96,2.51,.86,1.71-.09,2.12-.38,2.09-.83-.03-.52-.35-.59-2.47-.62-2.89-.05-4.2-.56-4.28-2.14-.08-1.48,1.49-2.24,3.95-2.36,2.74-.14,4.36,.6,4.5,2.18l-2.15,.11c-.03-.63-.73-.83-2.33-.75-1.51,.08-1.84,.35-1.82,.73,.02,.44,.37,.56,2.31,.62,2.62,.06,4.33,.15,4.43,2.02,.09,1.82-1.56,2.44-4.09,2.57-2.88,.15-4.63-.42-4.82-2.29l2.16-.11Z" fill="#1d1c1a"></path><path d="M117.06,193.29l1.97-.29,.22,1.53-1.97,.29-.23-1.53Z" fill="#1d1c1a"></path><path d="M124.91,185.93c2.55-.62,4.26,.12,4.9,1.85l-2.13,.52c-.29-.61-1.07-.98-2.35-.67-1.48,.36-2.02,1.26-1.73,2.48,.3,1.22,1.21,1.78,2.68,1.42,1.28-.31,1.8-1.01,1.77-1.7l2.13-.52c.23,1.84-.94,3.3-3.49,3.92-2.78,.68-4.62-.24-5.2-2.61-.58-2.36,.63-4.01,3.41-4.69Z" fill="#1d1c1a"></path><path d="M132.62,187.73c-.87-2.2,.14-4.08,2.93-5.19,2.78-1.1,4.82-.4,5.68,1.79,.87,2.2-.14,4.11-2.92,5.21-2.79,1.1-4.82,.4-5.69-1.81Zm6.61-2.61c-.45-1.15-1.39-1.6-3.03-.95-1.63,.64-2.02,1.6-1.56,2.76,.46,1.17,1.41,1.61,3.03,.97,1.63-.64,2.02-1.62,1.56-2.78Z" fill="#1d1c1a"></path><path d="M145.6,186.26l-3.58-6.16,2.78-1.62,4.52,2.84-.24-5.33,2.78-1.62,3.58,6.16-1.78,1.03-2.59-4.46,.28,5.81-1.65,.96-4.91-3.11,2.6,4.46-1.79,1.04Z" fill="#1d1c1a"></path></g></g><path d="M48.34,171.86c-18.95-16.08-30.98-40.07-30.98-66.86S30.03,52.95,49.85,36.88" fill="none" stroke="#971a2e" stroke-miterlimit="10" stroke-width="2.22"></path><path d="M160.16,36.89c19.82,16.07,32.48,40.61,32.48,68.11s-12.03,50.79-30.98,66.87" fill="none" stroke="#971a2e" stroke-miterlimit="10" stroke-width="2.22"></path></g></g></g></svg>