<svg xmlns="http://www.w3.org/2000/svg" id="Layer_2" viewBox="0 0 210 210"><g id="Layer_1-2"><g><g><circle cx="105" cy="105" r="105" fill="#154284"></circle><path d="M105,5.32c54.96,0,99.68,44.72,99.68,99.68s-44.72,99.68-99.68,99.68S5.32,159.96,5.32,105,50.04,5.32,105,5.32M105,0C47.01,0,0,47.01,0,105s47.01,105,105,105,105-47.01,105-105S162.99,0,105,0h0Z" fill="#fdc52c"></path></g><g><g><g><path d="M122.47,57.47l.57,.38c6.3,4.17,11.36,4.93,19.08,4.93,2.72,0,5.64-.51,8.43-1.48l.73-.25,3.66,5.12-.38,.5c-13.59,18.05-2.99,37.55,4.51,45.33l.69,.72-.71,.71c-.98,.98-2.69,2.75-3.95,4.08l-.43,.45,.03,.62v.22c.01,.16,.02,.32,.05,.61v.11c.65,12.04-2.47,21.93-9.26,29.4-7.21,7.93-18.59,12.7-32.04,13.44l-.52,.03-.38,.35c-3.42,3.12-6.9,5.71-6.94,5.73l-.61,.45-.61-.45c-.14-.11-3.58-2.66-6.96-5.74l-.38-.35-.52-.03c-13.45-.74-24.83-5.51-32.04-13.44-6.79-7.47-9.91-17.36-9.27-29.4v-.11c.04-.27,.05-.41,.05-.58v-.05s0,0,0,0v-.19s.03-.62,.03-.62l-.43-.45c-1.19-1.25-2.94-3.08-3.95-4.08l-.71-.71,.69-.72c7.5-7.78,18.09-27.27,4.51-45.33l-.38-.5,3.66-5.12,.73,.25c2.8,.97,5.71,1.48,8.43,1.48,7.71,0,12.78-.76,19.08-4.93l.58-.38,.57,.39c5.55,3.86,10.93,5.65,16.9,5.65,5.98,0,11.35-1.79,16.9-5.65l.57-.39" fill="#005596"></path><path d="M63.63,102.05c4.26-9.76,5.84-22.3-1.32-34.55,1.79,.32,3.67,.51,5.57,.51,7.33,0,13.1-.67,19.58-4.33,5.11,3.09,10.83,5.05,17.53,5.06,6.73,0,12.45-1.97,17.56-5.06,6.48,3.66,12.25,4.33,19.58,4.33,1.9,0,3.78-.2,5.59-.54-7.18,12.28-5.59,24.82-1.34,34.58H63.63" fill="#005596"></path><path d="M146.37,102.05c-4.26-9.76-5.84-22.3,1.34-34.58-1.81,.35-3.68,.54-5.59,.54-7.33,0-13.1-.67-19.58-4.33-5.11,3.09-10.83,5.05-17.56,5.06-.06,0-.13,0-.19,0v33.31s41.58,0,41.58,0Z" fill="#005596"></path><g><path d="M137.26,149.22c8.15-5.96,12.97-15.48,12.26-29.36-.08-.79-.14-.84-.2-1.63h-12.06s0,30.99,0,30.99Z" fill="#005596"></path><path d="M124.36,155.2c4.85-1.31,9.22-3.28,12.91-5.98v-30.99s-12.91,0-12.91,0v36.97Z" fill="#005596"></path><path d="M72.74,149.22c3.69,2.7,8.05,4.66,12.91,5.98v-36.97s-12.91,0-12.91,0v30.99Z" fill="#005596"></path><path d="M60.48,119.86c-.71,13.88,4.11,23.4,12.26,29.36v-30.99s-12.06,0-12.06,0c-.06,.79-.12,.84-.2,1.63Z" fill="#005596"></path><g><path d="M105.03,125.09c2.36,0,4.56,.68,6.42,1.85v-8.7s-12.91,0-12.91,0v8.74c1.88-1.19,4.1-1.89,6.49-1.89Z" fill="#005596"></path><path d="M105.03,149.41c-2.39,0-4.61-.7-6.49-1.89v9.63c.23,.01,.45,.03,.68,.04,4.29,.02,8.17,.05,11.54,0,.23-.01,.45-.03,.68-.04v-9.59c-1.87,1.16-4.06,1.85-6.42,1.85Z" fill="#005596"></path></g><path d="M111.45,118.23v8.7c3.44,2.15,5.74,5.96,5.74,10.32,0,4.36-2.3,8.16-5.74,10.31v9.59c4.56-.23,8.9-.87,12.91-1.95v-36.97s-12.91,0-12.91,0Z" fill="#005596"></path><path d="M92.87,137.25c0-4.33,2.27-8.12,5.68-10.28v-8.74s-12.91,0-12.91,0v36.97c4.01,1.08,8.35,1.72,12.91,1.95v-9.62c-3.41-2.16-5.68-5.95-5.68-10.27Z" fill="#005596"></path></g><path d="M66.53,78.44c.87,4.22,.89,8.37,.34,12.31h12.54s0,11.29,0,11.29h12.31s0-11.29,0-11.29h13.12s0-12.31,0-12.31h-13.12s0-12.53,0-12.53c-1.47-.65-2.89-1.4-4.27-2.23-2.75,1.55-5.38,2.57-8.04,3.22v11.54s-12.88,0-12.88,0Z" fill="#005596"></path><g><path d="M131.35,102.05v-34.97c-1.48-.32-2.95-.75-4.42-1.32v36.3s4.42,0,4.42,0Z" fill="#005596"></path><path d="M113.65,102.05v-34.47c-1.42,.39-2.9,.69-4.42,.89v33.58s4.42,0,4.42,0Z" fill="#005596"></path><path d="M140.2,102.05v-34.06c-1.53-.03-3-.1-4.42-.24v34.29s4.42,0,4.42,0Z" fill="#005596"></path><path d="M122.5,102.05V63.71c-1.42,.86-2.9,1.63-4.42,2.29v36.04s4.42,0,4.42,0Z" fill="#005596"></path></g><path d="M161.81,112.72l-1.69-1.75c-7.2-7.47-17.39-26.17-4.39-43.44l1.02-1.36-4.91-6.88-1.76,.61c-2.65,.91-5.4,1.4-7.96,1.4-7.42,0-12.29-.72-18.27-4.69l-1.4-.93-1.38,.96c-5.3,3.68-10.4,5.39-16.07,5.39-5.67,0-10.77-1.71-16.07-5.39l-1.38-.96-1.4,.93c-5.99,3.96-10.85,4.69-18.27,4.69-2.56,0-5.31-.48-7.96-1.4l-1.76-.61-4.91,6.88,1.02,1.36c12.99,17.27,2.81,35.96-4.39,43.44l-1.69,1.75,1.72,1.72c.93,.92,2.57,2.63,3.92,4.06,0,.08,0,.15,0,.22,0,.15,0,.27-.04,.51v.16c-.68,12.46,2.57,22.71,9.64,30.48,7.49,8.24,19.2,13.16,33.04,13.92,3.43,3.12,6.91,5.71,7.07,5.83l1.48,1.1,1.48-1.1c.15-.12,3.62-2.7,7.04-5.83,13.84-.76,25.55-5.68,33.04-13.92,7.07-7.77,10.31-18.02,9.65-30.48v-.16c-.04-.24-.05-.36-.05-.51,0-.07,0-.14,0-.22,1.36-1.43,3-3.13,3.93-4.06l1.72-1.72Zm-8.2,4.87c.13,1.25,.05,1.2,.14,1.93,1.48,27.76-17.86,40.87-41.23,41.84-3.57,3.34-7.51,6.27-7.51,6.27,0,0-3.95-2.93-7.53-6.27-23.37-.97-42.71-14.08-41.24-41.84,.09-.73,.01-.68,.14-1.93-1.34-1.42-3.56-3.73-4.73-4.9,8.38-8.7,18.17-28.6,4.59-46.64l2.87-3.8c2.71,.94,5.73,1.53,8.77,1.53,7.79,0,13.1-.77,19.64-5.1,5.17,3.59,10.77,5.83,17.48,5.83,6.71,0,12.31-2.25,17.48-5.83,6.54,4.33,11.85,5.1,19.64,5.1,3.03,0,6.05-.59,8.77-1.53l2.87,3.8c-13.58,18.04-3.8,37.95,4.59,46.64-1.17,1.17-3.39,3.48-4.73,4.9Z" fill="#005596"></path><path d="M60.31,118.2c-.03,.42-.07,.63-.1,.85-.03,.19-.06,.4-.1,.79-.54,10.68,2.12,19.32,7.93,25.68,6.66,7.3,17.44,11.46,31.2,12.03h.52c2.29,.02,4.46,.03,6.5,.03,1.6,0,3.11,0,4.54-.03,13.74-.57,24.53-4.73,31.18-12.03,5.8-6.37,8.47-15.01,7.92-25.7-.04-.36-.07-.57-.1-.77-.04-.23-.07-.43-.1-.85l-.03-.34H60.34s-.03,.34-.03,.34Zm.54,1.7c.04-.34,.07-.54,.1-.73,.03-.17,.05-.33,.08-.57h87.96c.03,.24,.05,.4,.08,.57,.03,.18,.06,.38,.1,.71,.53,10.47-2.07,18.93-7.73,25.14-6.52,7.15-17.12,11.23-30.65,11.79-3.23,.04-6.93,.03-11.01,0h-.51c-13.54-.56-24.14-4.64-30.66-11.79-5.66-6.21-8.27-14.67-7.73-25.12Z" fill="#005596"></path><path d="M63.29,101.9l-.23,.52h83.88s-.23-.52-.23-.52c-3.64-8.36-6.37-21.08,1.32-34.24l.41-.71-.8,.15c-1.86,.36-3.71,.54-5.52,.54-7.49,0-13.06-.7-19.39-4.28l-.19-.11-.19,.11c-5.56,3.36-11.24,5-17.36,5.01-6.11,0-11.78-1.64-17.34-5.01l-.19-.11-.19,.11c-6.33,3.58-11.91,4.28-19.39,4.28-1.75,0-3.6-.17-5.5-.51l-.79-.14,.41,.69c7.68,13.14,4.94,25.86,1.3,34.21Zm41.93-32.79c6.11-.04,11.79-1.68,17.34-5,6.4,3.57,12.03,4.27,19.57,4.27,1.6,0,3.23-.14,4.87-.41-7.21,12.91-4.72,25.34-1.18,33.7h-40.59s0-32.56,0-32.56Zm-42.19-1.12c1.67,.26,3.31,.39,4.86,.39,7.54,0,13.17-.7,19.57-4.27,5.46,3.27,11.04,4.9,17.02,5v32.57s-40.28,0-40.28,0c3.54-8.37,6.03-20.79-1.17-33.69Z" fill="#005596"></path><polygon points="94.41 106.88 94.41 104.43 86.11 104.43 86.11 115.93 88.61 115.93 88.61 111.19 92 111.19 92 108.75 88.61 108.75 88.61 106.88 94.41 106.88" fill="#005596"></polygon><path d="M104.14,106.73c.91,0,1.54,.38,1.95,1.16l.05,.1,2.31-1.07-.05-.11c-.81-1.68-2.27-2.56-4.23-2.56-3.02,0-5.12,2.44-5.12,5.93,0,3.6,1.98,5.93,5.04,5.93,2,0,3.44-.88,4.28-2.61l.05-.1-2.1-1.24-.06,.1c-.6,1-1.17,1.37-2.1,1.37-1.52,0-2.55-1.39-2.55-3.45,0-2.13,.97-3.45,2.53-3.45Z" fill="#005596"></path><path d="M123.42,107.52c0-1.94-1.38-3.1-3.69-3.1h-5.29s0,11.5,0,11.5h5.24c2.58,0,4.13-1.41,4.13-3.76,0-1.09-.53-1.99-1.45-2.48,.68-.49,1.07-1.27,1.07-2.17Zm-6.53-.78h2.74c1.12,0,1.26,.51,1.26,.96,0,.63-.38,.94-1.15,.94h-2.85s0-1.89,0-1.89Zm2.87,6.8h-2.87s0-2.67,0-2.67h2.87c1.01,0,1.49,.42,1.49,1.33s-.51,1.34-1.49,1.34Z" fill="#005596"></path><path d="M104.95,149.61c6.85,0,12.42-5.57,12.42-12.43,0-6.85-5.57-12.43-12.42-12.43s-12.43,5.58-12.43,12.43c0,6.85,5.57,12.43,12.43,12.43Zm0-.75c-2.41,0-4.65-.73-6.52-1.99,2.47-.11,5.74-.74,7.78-1.95,1.97-1.17,4.06-2.64,4.45-4.6,1.43-.72,4.17-.38,4.52,2.5-1.99,3.6-5.82,6.04-10.23,6.04Zm-5.76-9c.57,.38,1.26,.63,2.08,.74,1.62,.21,3.88-1.4,4.02-3.23,2.23-1.58,3.95-.15,4.47,1.09,1.02,2.45-1.13,4.21-3.91,5.87-2.15,1.28-5.89,1.89-8.33,1.87-1.29-1.06-2.35-2.4-3.08-3.91,.09,0,.19,0,.28,0,1.92,0,3.55-.88,4.46-2.44Zm-1.86-5.9c-.03-2.29,.62-4.29,1.13-6.48,1.59-1.07,3.46-1.75,5.47-1.92-1.35,1.47-1.07,3.62,.32,4.73-.33,.24-.62,.55-.87,.96-1.03,1.63-1.18,4.37,1.21,6.12-.15,1.37-1.97,2.71-3.23,2.55-2.71-.35-3.99-2.86-4.03-5.95Zm13.38,5.58c-.02-.43-.12-.88-.32-1.36-.62-1.48-2.76-3.29-5.45-1.43-1.98-1.49-1.86-3.76-.98-5.15,1.36-2.15,4.44-1.29,7.26,.28,2.29,1.28,4.68,3.95,5.35,6.37-.11,1.26-.43,2.45-.91,3.56-.79-2.47-3.37-2.83-4.95-2.27Zm.85-8.26c-2.04-1.14-4.72-2.18-6.65-1.38-1.46-.91-1.71-3.19,.13-4.4,6.17,.05,11.19,4.88,11.56,10.97-1.1-2.11-3.11-4.12-5.04-5.19Zm-13.98-3.17c-.22,.86-.43,1.61-.6,2.37-.6,2.75-.59,6.9,1.64,8.94-.77,1.37-2.18,2.17-3.91,2.17-.21,0-.41-.01-.61-.04-.55-1.35-.85-2.83-.85-4.38,0-3.66,1.68-6.92,4.31-9.06Z" fill="#005596"></path></g><g><path d="M122.47,57.47l.57,.38c6.3,4.17,11.36,4.93,19.08,4.93,2.72,0,5.64-.51,8.43-1.48l.73-.25,3.66,5.12-.38,.5c-13.59,18.05-2.99,37.55,4.51,45.33l.69,.72-.71,.71c-.98,.98-2.69,2.75-3.95,4.08l-.43,.45,.03,.62v.22c.01,.16,.02,.32,.05,.61v.11c.65,12.04-2.47,21.93-9.26,29.4-7.21,7.93-18.59,12.7-32.04,13.44l-.52,.03-.38,.35c-3.42,3.12-6.9,5.71-6.94,5.73l-.61,.45-.61-.45c-.14-.11-3.58-2.66-6.96-5.74l-.38-.35-.52-.03c-13.45-.74-24.83-5.51-32.04-13.44-6.79-7.47-9.91-17.36-9.27-29.4v-.11c.04-.27,.05-.41,.05-.58v-.05s0,0,0,0v-.19s.03-.62,.03-.62l-.43-.45c-1.19-1.25-2.94-3.08-3.95-4.08l-.71-.71,.69-.72c7.5-7.78,18.09-27.27,4.51-45.33l-.38-.5,3.66-5.12,.73,.25c2.8,.97,5.71,1.48,8.43,1.48,7.71,0,12.78-.76,19.08-4.93l.58-.38,.57,.39c5.55,3.86,10.93,5.65,16.9,5.65,5.98,0,11.35-1.79,16.9-5.65l.57-.39" fill="#e8b909"></path><path d="M63.63,102.05c4.26-9.76,5.84-22.3-1.32-34.55,1.79,.32,3.67,.51,5.57,.51,7.33,0,13.1-.67,19.58-4.33,5.11,3.09,10.83,5.05,17.53,5.06,6.73,0,12.45-1.97,17.56-5.06,6.48,3.66,12.25,4.33,19.58,4.33,1.9,0,3.78-.2,5.59-.54-7.18,12.28-5.59,24.82-1.34,34.58H63.63" fill="#fff"></path><path d="M146.37,102.05c-4.26-9.76-5.84-22.3,1.34-34.58-1.81,.35-3.68,.54-5.59,.54-7.33,0-13.1-.67-19.58-4.33-5.11,3.09-10.83,5.05-17.56,5.06-.06,0-.13,0-.19,0v33.31s41.58,0,41.58,0Z" fill="#fd0"></path><g><path d="M137.26,149.22c8.15-5.96,12.97-15.48,12.26-29.36-.08-.79-.14-.84-.2-1.63h-12.06s0,30.99,0,30.99Z" fill="#0054a4"></path><path d="M124.36,155.2c4.85-1.31,9.22-3.28,12.91-5.98v-30.99s-12.91,0-12.91,0v36.97Z" fill="#a30046"></path><path d="M72.74,149.22c3.69,2.7,8.05,4.66,12.91,5.98v-36.97s-12.91,0-12.91,0v30.99Z" fill="#a30046"></path><path d="M60.48,119.86c-.71,13.88,4.11,23.4,12.26,29.36v-30.99s-12.06,0-12.06,0c-.06,.79-.12,.84-.2,1.63Z" fill="#0054a4"></path><g><path d="M105.03,125.09c2.36,0,4.56,.68,6.42,1.85v-8.7s-12.91,0-12.91,0v8.74c1.88-1.19,4.1-1.89,6.49-1.89Z" fill="#a30046"></path><path d="M105.03,149.41c-2.39,0-4.61-.7-6.49-1.89v9.63c.23,.01,.45,.03,.68,.04,4.29,.02,8.17,.05,11.54,0,.23-.01,.45-.03,.68-.04v-9.59c-1.87,1.16-4.06,1.85-6.42,1.85Z" fill="#a30046"></path></g><path d="M111.45,118.23v8.7c3.44,2.15,5.74,5.96,5.74,10.32,0,4.36-2.3,8.16-5.74,10.31v9.59c4.56-.23,8.9-.87,12.91-1.95v-36.97s-12.91,0-12.91,0Z" fill="#0054a4"></path><path d="M92.87,137.25c0-4.33,2.27-8.12,5.68-10.28v-8.74s-12.91,0-12.91,0v36.97c4.01,1.08,8.35,1.72,12.91,1.95v-9.62c-3.41-2.16-5.68-5.95-5.68-10.27Z" fill="#0054a4"></path></g><path d="M66.53,78.44c.87,4.22,.89,8.37,.34,12.31h12.54s0,11.29,0,11.29h12.31s0-11.29,0-11.29h13.12s0-12.31,0-12.31h-13.12s0-12.53,0-12.53c-1.47-.65-2.89-1.4-4.27-2.23-2.75,1.55-5.38,2.57-8.04,3.22v11.54s-12.88,0-12.88,0Z" fill="#e31837"></path><g><path d="M131.35,102.05v-34.97c-1.48-.32-2.95-.75-4.42-1.32v36.3s4.42,0,4.42,0Z" fill="#e31837"></path><path d="M113.65,102.05v-34.47c-1.42,.39-2.9,.69-4.42,.89v33.58s4.42,0,4.42,0Z" fill="#e31837"></path><path d="M140.2,102.05v-34.06c-1.53-.03-3-.1-4.42-.24v34.29s4.42,0,4.42,0Z" fill="#e31837"></path><path d="M122.5,102.05V63.71c-1.42,.86-2.9,1.63-4.42,2.29v36.04s4.42,0,4.42,0Z" fill="#e31837"></path></g><path d="M161.81,112.72l-1.69-1.75c-7.2-7.47-17.39-26.17-4.39-43.44l1.02-1.36-4.91-6.88-1.76,.61c-2.65,.91-5.4,1.4-7.96,1.4-7.42,0-12.29-.72-18.27-4.69l-1.4-.93-1.38,.96c-5.3,3.68-10.4,5.39-16.07,5.39-5.67,0-10.77-1.71-16.07-5.39l-1.38-.96-1.4,.93c-5.99,3.96-10.85,4.69-18.27,4.69-2.56,0-5.31-.48-7.96-1.4l-1.76-.61-4.91,6.88,1.02,1.36c12.99,17.27,2.81,35.96-4.39,43.44l-1.69,1.75,1.72,1.72c.93,.92,2.57,2.63,3.92,4.06,0,.08,0,.15,0,.22,0,.15,0,.27-.04,.51v.16c-.68,12.46,2.57,22.71,9.64,30.48,7.49,8.24,19.2,13.16,33.04,13.92,3.43,3.12,6.91,5.71,7.07,5.83l1.48,1.1,1.48-1.1c.15-.12,3.62-2.7,7.04-5.83,13.84-.76,25.55-5.68,33.04-13.92,7.07-7.77,10.31-18.02,9.65-30.48v-.16c-.04-.24-.05-.36-.05-.51,0-.07,0-.14,0-.22,1.36-1.43,3-3.13,3.93-4.06l1.72-1.72Zm-8.2,4.87c.13,1.25,.05,1.2,.14,1.93,1.48,27.76-17.86,40.87-41.23,41.84-3.57,3.34-7.51,6.27-7.51,6.27,0,0-3.95-2.93-7.53-6.27-23.37-.97-42.71-14.08-41.24-41.84,.09-.73,.01-.68,.14-1.93-1.34-1.42-3.56-3.73-4.73-4.9,8.38-8.7,18.17-28.6,4.59-46.64l2.87-3.8c2.71,.94,5.73,1.53,8.77,1.53,7.79,0,13.1-.77,19.64-5.1,5.17,3.59,10.77,5.83,17.48,5.83,6.71,0,12.31-2.25,17.48-5.83,6.54,4.33,11.85,5.1,19.64,5.1,3.03,0,6.05-.59,8.77-1.53l2.87,3.8c-13.58,18.04-3.8,37.95,4.59,46.64-1.17,1.17-3.39,3.48-4.73,4.9Z" fill="#231f20"></path><path d="M60.31,118.2c-.03,.42-.07,.63-.1,.85-.03,.19-.06,.4-.1,.79-.54,10.68,2.12,19.32,7.93,25.68,6.66,7.3,17.44,11.46,31.2,12.03h.52c2.29,.02,4.46,.03,6.5,.03,1.6,0,3.11,0,4.54-.03,13.74-.57,24.53-4.73,31.18-12.03,5.8-6.37,8.47-15.01,7.92-25.7-.04-.36-.07-.57-.1-.77-.04-.23-.07-.43-.1-.85l-.03-.34H60.34s-.03,.34-.03,.34Zm.54,1.7c.04-.34,.07-.54,.1-.73,.03-.17,.05-.33,.08-.57h87.96c.03,.24,.05,.4,.08,.57,.03,.18,.06,.38,.1,.71,.53,10.47-2.07,18.93-7.73,25.14-6.52,7.15-17.12,11.23-30.65,11.79-3.23,.04-6.93,.03-11.01,0h-.51c-13.54-.56-24.14-4.64-30.66-11.79-5.66-6.21-8.27-14.67-7.73-25.12Z" fill="#231f20"></path><path d="M63.29,101.9l-.23,.52h83.88s-.23-.52-.23-.52c-3.64-8.36-6.37-21.08,1.32-34.24l.41-.71-.8,.15c-1.86,.36-3.71,.54-5.52,.54-7.49,0-13.06-.7-19.39-4.28l-.19-.11-.19,.11c-5.56,3.36-11.24,5-17.36,5.01-6.11,0-11.78-1.64-17.34-5.01l-.19-.11-.19,.11c-6.33,3.58-11.91,4.28-19.39,4.28-1.75,0-3.6-.17-5.5-.51l-.79-.14,.41,.69c7.68,13.14,4.94,25.86,1.3,34.21Zm41.93-32.79c6.11-.04,11.79-1.68,17.34-5,6.4,3.57,12.03,4.27,19.57,4.27,1.6,0,3.23-.14,4.87-.41-7.21,12.91-4.72,25.34-1.18,33.7h-40.59s0-32.56,0-32.56Zm-42.19-1.12c1.67,.26,3.31,.39,4.86,.39,7.54,0,13.17-.7,19.57-4.27,5.46,3.27,11.04,4.9,17.02,5v32.57s-40.28,0-40.28,0c3.54-8.37,6.03-20.79-1.17-33.69Z" fill="#231f20"></path><polygon points="94.41 106.88 94.41 104.43 86.11 104.43 86.11 115.93 88.61 115.93 88.61 111.19 92 111.19 92 108.75 88.61 108.75 88.61 106.88 94.41 106.88" fill="#231f20"></polygon><path d="M104.14,106.73c.91,0,1.54,.38,1.95,1.16l.05,.1,2.31-1.07-.05-.11c-.81-1.68-2.27-2.56-4.23-2.56-3.02,0-5.12,2.44-5.12,5.93,0,3.6,1.98,5.93,5.04,5.93,2,0,3.44-.88,4.28-2.61l.05-.1-2.1-1.24-.06,.1c-.6,1-1.17,1.37-2.1,1.37-1.52,0-2.55-1.39-2.55-3.45,0-2.13,.97-3.45,2.53-3.45Z" fill="#231f20"></path><path d="M123.42,107.52c0-1.94-1.38-3.1-3.69-3.1h-5.29s0,11.5,0,11.5h5.24c2.58,0,4.13-1.41,4.13-3.76,0-1.09-.53-1.99-1.45-2.48,.68-.49,1.07-1.27,1.07-2.17Zm-6.53-.78h2.74c1.12,0,1.26,.51,1.26,.96,0,.63-.38,.94-1.15,.94h-2.85s0-1.89,0-1.89Zm2.87,6.8h-2.87s0-2.67,0-2.67h2.87c1.01,0,1.49,.42,1.49,1.33s-.51,1.34-1.49,1.34Z" fill="#231f20"></path><path d="M104.95,149.61c6.85,0,12.42-5.57,12.42-12.43,0-6.85-5.57-12.43-12.42-12.43s-12.43,5.58-12.43,12.43c0,6.85,5.57,12.43,12.43,12.43Zm0-.75c-2.41,0-4.65-.73-6.52-1.99,2.47-.11,5.74-.74,7.78-1.95,1.97-1.17,4.06-2.64,4.45-4.6,1.43-.72,4.17-.38,4.52,2.5-1.99,3.6-5.82,6.04-10.23,6.04Zm-5.76-9c.57,.38,1.26,.63,2.08,.74,1.62,.21,3.88-1.4,4.02-3.23,2.23-1.58,3.95-.15,4.47,1.09,1.02,2.45-1.13,4.21-3.91,5.87-2.15,1.28-5.89,1.89-8.33,1.87-1.29-1.06-2.35-2.4-3.08-3.91,.09,0,.19,0,.28,0,1.92,0,3.55-.88,4.46-2.44Zm-1.86-5.9c-.03-2.29,.62-4.29,1.13-6.48,1.59-1.07,3.46-1.75,5.47-1.92-1.35,1.47-1.07,3.62,.32,4.73-.33,.24-.62,.55-.87,.96-1.03,1.63-1.18,4.37,1.21,6.12-.15,1.37-1.97,2.71-3.23,2.55-2.71-.35-3.99-2.86-4.03-5.95Zm13.38,5.58c-.02-.43-.12-.88-.32-1.36-.62-1.48-2.76-3.29-5.45-1.43-1.98-1.49-1.86-3.76-.98-5.15,1.36-2.15,4.44-1.29,7.26,.28,2.29,1.28,4.68,3.95,5.35,6.37-.11,1.26-.43,2.45-.91,3.56-.79-2.47-3.37-2.83-4.95-2.27Zm.85-8.26c-2.04-1.14-4.72-2.18-6.65-1.38-1.46-.91-1.71-3.19,.13-4.4,6.17,.05,11.19,4.88,11.56,10.97-1.1-2.11-3.11-4.12-5.04-5.19Zm-13.98-3.17c-.22,.86-.43,1.61-.6,2.37-.6,2.75-.59,6.9,1.64,8.94-.77,1.37-2.18,2.17-3.91,2.17-.21,0-.41-.01-.61-.04-.55-1.35-.85-2.83-.85-4.38,0-3.66,1.68-6.92,4.31-9.06Z" fill="#231f20"></path></g></g><g><g><g><path d="M64.48,23.82l.85,1.54-4.65,2.57,.73,1.33,4.13-2.28,.84,1.53-4.13,2.28,1.02,1.84-1.81,1-3.44-6.23,6.46-3.57Z" fill="#fdc52c"></path><path d="M76.23,26.51l-1.13-.99-4.06,1.65-.12,1.5-2.06,.84,.72-7.97,2.64-1.07,6.07,5.21-2.05,.83Zm-5.05-1.07l2.6-1.06-2.35-2.05-.25,3.11Z" fill="#fdc52c"></path><path d="M86.83,21.37l-1.23-4.95,1.99-.49,1.71,6.91-2.93,.73-5.3-3.94,1.23,4.95-2,.5-1.71-6.91,2.94-.73,5.3,3.94Z" fill="#fdc52c"></path><path d="M96.85,14.62l8.57-.35,.07,1.75-3.25,.13,.22,5.36-2.06,.08-.22-5.36-3.26,.13-.07-1.75Z" fill="#fdc52c"></path><path d="M107.92,17.84c.2-2.35,1.94-3.6,4.93-3.34,2.98,.26,4.49,1.79,4.29,4.13-.2,2.35-1.95,3.62-4.93,3.36-2.99-.26-4.49-1.79-4.29-4.15Zm7.07,.61c.11-1.23-.53-2.05-2.29-2.2-1.75-.15-2.52,.53-2.62,1.78-.11,1.25,.54,2.07,2.28,2.22,1.75,.15,2.53-.55,2.64-1.79Z" fill="#fdc52c"></path><path d="M129.4,17.56l-4.18,2.13,2.62,4.82-2.53-.57-1.82-3.36-1.99,1.01-.32,1.41-2.01-.46,1.57-6.95,2.02,.45-.7,3.12,4.34-2.29,3.02,.68Z" fill="#fdc52c"></path><path d="M139.29,20.98l-.55,1.52-5-1.81-.39,1.07,4.81,1.74-.55,1.52-4.81-1.74-.39,1.07,5,1.81-.55,1.52-6.94-2.51,2.42-6.7,6.94,2.51Z" fill="#fdc52c"></path><path d="M146.5,30.14l2.34-4.54,1.83,.94-3.27,6.33-2.69-1.39-1.39-6.47-2.34,4.54-1.84-.95,3.27-6.33,2.7,1.39,1.39,6.47Z" fill="#fdc52c"></path></g><g><path d="M57.53,179.5c-.31,.51,0,1.15,1.6,2.12,1.47,.88,1.97,.87,2.2,.49,.27-.44,.04-.69-1.7-1.9-2.37-1.66-3.16-2.81-2.35-4.16,.77-1.27,2.49-1.02,4.6,.25,2.35,1.41,3.27,2.94,2.51,4.33l-1.85-1.11c.32-.54-.14-1.1-1.51-1.92-1.3-.78-1.72-.74-1.92-.41-.23,.38,0,.67,1.57,1.8,2.14,1.52,3.5,2.55,2.54,4.15-.94,1.56-2.66,1.15-4.83-.16-2.47-1.49-3.6-2.93-2.72-4.59l1.85,1.12Z" fill="#fdc52c"></path><path d="M66.2,183.1c.94-2.17,2.98-2.79,5.74-1.6,2.75,1.19,3.69,3.12,2.76,5.28-.94,2.17-3,2.81-5.75,1.62-2.76-1.19-3.69-3.12-2.75-5.3Zm6.52,2.83c.49-1.14,.14-2.11-1.48-2.82-1.61-.7-2.56-.29-3.05,.85-.5,1.15-.14,2.13,1.46,2.83,1.61,.7,2.58,.28,3.07-.87Z" fill="#fdc52c"></path><path d="M82.54,185.26c2.52,.71,3.65,2.19,3.36,4.01l-2.11-.59c.04-.67-.45-1.38-1.72-1.73-1.47-.41-2.38,.11-2.72,1.31-.34,1.21,.18,2.14,1.64,2.55,1.27,.35,2.06,0,2.37-.61l2.11,.59c-.7,1.72-2.43,2.41-4.96,1.71-2.75-.77-3.9-2.47-3.25-4.82,.66-2.34,2.52-3.19,5.27-2.42Z" fill="#fdc52c"></path><path d="M91.13,187.38l-1.26,7-2.03-.37,1.26-7,2.03,.37Z" fill="#fdc52c"></path><path d="M93.28,191.41c.19-2.35,1.92-3.6,4.91-3.36,2.98,.24,4.5,1.77,4.3,4.11-.19,2.35-1.93,3.62-4.92,3.38-2.99-.24-4.5-1.77-4.3-4.13Zm7.07,.58c.1-1.23-.54-2.04-2.3-2.19-1.75-.14-2.51,.55-2.62,1.79-.1,1.25,.55,2.06,2.29,2.21,1.75,.14,2.53-.56,2.63-1.81Z" fill="#fdc52c"></path><path d="M107.35,193.3c.03,.6,.64,.96,2.51,.86,1.71-.09,2.12-.38,2.09-.83-.03-.52-.35-.59-2.47-.62-2.89-.05-4.2-.56-4.28-2.14-.08-1.48,1.49-2.24,3.95-2.36,2.74-.14,4.36,.6,4.5,2.18l-2.15,.11c-.03-.63-.73-.83-2.33-.75-1.51,.08-1.84,.35-1.82,.73,.02,.44,.37,.56,2.31,.62,2.62,.06,4.33,.15,4.43,2.02,.09,1.82-1.56,2.44-4.09,2.57-2.88,.15-4.63-.42-4.82-2.29l2.16-.11Z" fill="#fdc52c"></path><path d="M117.06,193.28l1.97-.29,.22,1.53-1.97,.29-.23-1.53Z" fill="#fdc52c"></path><path d="M124.91,185.92c2.55-.62,4.26,.12,4.9,1.85l-2.13,.52c-.29-.61-1.07-.98-2.35-.67-1.48,.36-2.02,1.26-1.73,2.48,.3,1.22,1.21,1.78,2.68,1.42,1.28-.31,1.8-1.01,1.77-1.7l2.13-.52c.23,1.84-.94,3.3-3.49,3.92-2.78,.68-4.62-.24-5.2-2.61-.58-2.36,.63-4.01,3.41-4.69Z" fill="#fdc52c"></path><path d="M132.62,187.72c-.87-2.2,.13-4.09,2.93-5.19,2.78-1.1,4.82-.4,5.68,1.79,.87,2.2-.14,4.11-2.92,5.21-2.79,1.1-4.82,.4-5.69-1.81Zm6.61-2.61c-.45-1.15-1.39-1.6-3.03-.95-1.63,.64-2.02,1.6-1.56,2.76,.46,1.17,1.41,1.61,3.03,.97,1.63-.64,2.02-1.62,1.56-2.78Z" fill="#fdc52c"></path><path d="M145.6,186.26l-3.58-6.16,2.78-1.62,4.52,2.84-.24-5.33,2.78-1.62,3.58,6.16-1.78,1.03-2.59-4.46,.28,5.81-1.65,.96-4.91-3.11,2.6,4.46-1.79,1.04Z" fill="#fdc52c"></path></g></g><path d="M48.34,171.86c-18.95-16.08-30.98-40.07-30.98-66.86S30.03,52.95,49.85,36.88" fill="none" stroke="#fdc52c" stroke-miterlimit="10" stroke-width="2.22"></path><path d="M160.16,36.89c19.82,16.07,32.48,40.61,32.48,68.11s-12.03,50.79-30.98,66.87" fill="none" stroke="#fdc52c" stroke-miterlimit="10" stroke-width="2.22"></path></g></g></g></g></svg>