<svg xmlns="http://www.w3.org/2000/svg" width="100" height="100" viewBox="0 0 100 100" fill="none"><g clip-path="url(#clip0_101_22117)"><path d="M50 100C77.6142 100 100 77.6142 100 50C100 22.3858 77.6142 0 50 0C22.3858 0 0 22.3858 0 50C0 77.6142 22.3858 100 50 100Z" fill="#005596"></path><path d="M49.9999 98.7333C76.9146 98.7333 98.7333 76.9146 98.7333 49.9999C98.7333 23.0853 76.9146 1.2666 49.9999 1.2666C23.0853 1.2666 1.2666 23.0853 1.2666 49.9999C1.2666 76.9146 23.0853 98.7333 49.9999 98.7333Z" fill="#005596"></path><path d="M50 2.53333C76.1714 2.53333 97.4667 23.8286 97.4667 50C97.4667 76.1714 76.1714 97.4667 50 97.4667C23.8286 97.4667 2.53333 76.1714 2.53333 50C2.53333 23.8286 23.8286 2.53333 50 2.53333ZM50 0C22.3857 0 0 22.3857 0 50C0 77.6143 22.3857 100 50 100C77.6143 100 100 77.6143 100 50C100 22.3857 77.6143 0 50 0Z" fill="#005596"></path><path d="M50 100C77.6142 100 100 77.6142 100 50C100 22.3858 77.6142 0 50 0C22.3858 0 0 22.3858 0 50C0 77.6142 22.3858 100 50 100Z" fill="#FF671D"></path><path d="M50 2.53333C76.1714 2.53333 97.4667 23.8286 97.4667 50C97.4667 76.1714 76.1714 97.4667 50 97.4667C23.8286 97.4667 2.53333 76.1714 2.53333 50C2.53333 23.8286 23.8286 2.53333 50 2.53333ZM50 0C22.3857 0 0 22.3857 0 50C0 77.6143 22.3857 100 50 100C77.6143 100 100 77.6143 100 50C100 22.3857 77.6143 0 50 0Z" fill="white"></path><path d="M50 80.9432C45.1619 80.9432 37.5619 71.9956 36.3952 70.3908C29.0714 60.4385 27.3762 51.8146 26.8381 48.5813C26.719 47.8384 26.5809 46.6289 26.5571 45.1146V44.4623C26.5809 41.2527 27.2524 36.7908 29.9047 32.2575C33.4143 26.2099 37.3667 23.1432 39.7857 21.6765C40.9047 20.9813 41.6952 20.6527 41.9238 20.5385C42.6428 20.167 43.1428 20.4051 43.1428 20.4051C46.1428 23.848 47.3762 21.6575 47.3762 21.6575C47.3762 21.6575 46.8095 20.5861 46.9143 19.9146C46.8381 19.2718 47.919 19.0527 48.2476 19.0527C48.5952 19.0527 49.1762 19.5575 49.1762 19.5575L49.9905 19.4194L50.8047 19.5575C50.8047 19.5575 51.3714 19.0718 51.719 19.0718C52.0428 19.0718 53.2333 19.3194 53.1286 19.8527C53.1714 20.7004 52.7428 21.7051 52.7428 21.7051C52.7428 21.7051 53.9476 23.9194 56.9476 20.4765C56.9476 20.4765 57.3143 20.1623 58.0619 20.5289C58.2952 20.6432 59.1524 21.0194 60.3619 21.7623C62.7809 23.2527 66.6381 26.3194 70.0809 32.248C72.7095 36.7813 73.3809 41.2242 73.4286 44.4527V45.1051C73.4047 46.6194 73.2667 47.8242 73.1238 48.5718C72.5905 51.8051 70.9143 60.4289 63.5905 70.3813C62.4762 71.9146 55.4809 80.9337 49.9905 80.9337L50 80.9432Z" fill="white"></path><path d="M71.6 41.8193L28.0381 40.6527L37.2714 30.2241L64.6809 28.8955L71.6 41.8193Z" fill="white"></path><path fill-rule="evenodd" clip-rule="evenodd" d="M50.1668 79.8576C54.4906 80.029 62.7239 70.9242 67.1239 62.5623C70.6192 55.9099 71.7858 51.4242 71.9573 43.9099L28.043 43.8242C28.3668 52.3528 29.9287 57.4956 34.4001 64.7623C38.8573 72.0099 43.9811 79.2576 50.1668 79.8528V79.8576Z" fill="#FEDF2E" stroke="#110C15" stroke-miterlimit="3.86"></path><path d="M56.2716 40.3434H55.8621L54.5669 43.5292H55.3621L55.6145 42.8672H56.9574L57.1859 43.5292H58.0288L56.7335 40.3434H56.2764H56.2716ZM35.9621 40.3434H35.5526L34.2574 43.5292H35.0288L35.2764 42.8672H36.6431L36.8716 43.5292H37.6907L36.4145 40.3434H35.9621ZM32.4145 43.5292H33.1193L34.3716 40.3434H33.5764L32.7812 42.753L31.9859 40.3434H31.1669L32.4193 43.5292H32.4145ZM40.8288 42.9625H39.0097V40.3482H38.2383V43.5339H40.8288V42.9672V42.9625ZM44.3097 42.9625H42.3288V42.1196H44.0574V41.572H42.3288V40.9149H44.2145V40.3482H41.5764V43.5339H44.305V42.9672L44.3097 42.9625ZM45.8812 41.2577L47.3812 43.5339H48.1526V40.3482H47.4478V42.5768L45.9669 40.3482H45.1716V43.5339H45.8764V41.2577H45.8812ZM50.705 43.6244C51.1145 43.6244 51.4574 43.5101 51.7288 43.3053C52.0002 43.0768 52.1621 42.8053 52.2288 42.4625H51.4764C51.4288 42.6196 51.3621 42.7339 51.2955 42.8244C51.1574 42.9815 50.9526 43.053 50.6812 43.053C50.4288 43.053 50.224 42.9625 50.0669 42.7815C49.8859 42.6006 49.8193 42.3482 49.8193 41.9863C49.8193 41.6244 49.8859 41.3482 50.0478 41.1434C50.205 40.9625 50.4335 40.8482 50.6859 40.8482C50.9574 40.8482 51.1621 40.9149 51.3002 41.053C51.3669 41.1434 51.4383 41.2577 51.4812 41.4196H52.2336C52.2336 41.2149 52.1431 41.0101 51.9812 40.8292C51.7097 40.4672 51.2764 40.2815 50.6621 40.2815C50.205 40.2815 49.8431 40.4196 49.5478 40.6911C49.205 40.9863 49.024 41.4196 49.024 41.9625C49.024 42.5053 49.1812 42.8958 49.4812 43.1911C49.7764 43.4863 50.1859 43.6244 50.7097 43.6244H50.705ZM53.1621 43.5339H53.9145V40.3482H53.1621V43.5339ZM61.6907 43.6244C62.1002 43.6244 62.4431 43.5101 62.7145 43.3053C62.9859 43.0768 63.1478 42.8053 63.2145 42.4625H62.4621C62.4193 42.6196 62.3478 42.7339 62.2574 42.8244C62.1431 42.9815 61.9383 43.053 61.6669 43.053C61.4145 43.053 61.2097 42.9625 61.0526 42.7815C60.8716 42.6006 60.805 42.3482 60.805 41.9863C60.805 41.6244 60.8716 41.3482 61.0336 41.1434C61.1907 40.9625 61.4193 40.8482 61.6716 40.8482C61.9431 40.8482 62.1478 40.9149 62.2859 41.053C62.3526 41.1434 62.424 41.2577 62.4669 41.4196H63.2193C63.2193 41.2149 63.1288 41.0101 62.9669 40.8292C62.6955 40.4672 62.2621 40.2815 61.6478 40.2815C61.1907 40.2815 60.8288 40.4196 60.5336 40.6911C60.1907 40.9863 60.0097 41.4196 60.0097 41.9625C60.0097 42.5053 60.1716 42.8958 60.4669 43.1911C60.7621 43.4863 61.1716 43.6244 61.6955 43.6244H61.6907ZM64.1478 43.5339H64.9002V42.8958H64.1478V43.5339ZM66.5574 42.1911H68.1716V41.6434H66.5574V40.9149H68.424V40.3482H65.8097V43.5339H66.5621V42.1911H66.5574ZM68.5145 43.5339H69.2669V42.8958H68.5145V43.5339ZM50.0478 80.2815C45.3145 80.2815 37.8812 71.5292 36.7431 69.9577C29.5764 60.2244 27.9193 51.7863 27.3955 48.6244C27.2812 47.8958 27.1478 46.7149 27.124 45.2339V44.5958C27.1478 41.4577 27.805 37.0911 30.4002 32.653C33.8335 26.7387 37.7002 23.7387 40.0669 22.3053C41.1574 21.6244 41.9335 21.3053 42.1574 21.1911C42.8621 20.8292 43.1812 21.2815 43.1812 21.2815C46.1145 24.6482 47.9812 22.053 47.9812 22.053C47.9812 22.053 47.6383 21.2339 47.4812 20.4149C47.324 19.6196 48.0478 19.6196 48.3669 19.6196C48.7097 19.6196 49.2526 20.2339 49.2526 20.2339L50.0478 20.0958L50.8431 20.2339C50.8431 20.2339 51.3907 19.6196 51.7288 19.6196C52.0478 19.6196 52.7526 19.6196 52.6145 20.4149C52.4574 21.2339 52.0907 22.053 52.0907 22.053C52.0907 22.053 53.9764 24.6434 56.9097 21.2815C56.9097 21.2815 57.205 20.8292 57.9336 21.1911C58.1621 21.3053 59.0002 21.6672 60.1859 22.3958C62.5526 23.853 66.324 26.853 69.6907 32.653C72.2621 37.0863 72.9193 41.4339 72.9669 44.5958V45.2339C72.9431 46.7149 72.805 47.8958 72.6716 48.6244C72.1478 51.7863 70.5097 60.2244 63.3478 69.9577C62.2574 71.4577 55.4193 80.2815 50.0431 80.2815H50.0478ZM60.1907 24.6101C59.6002 23.7672 58.8478 22.8815 57.9145 21.9958L57.824 22.1768C57.824 22.1768 59.005 23.3577 60.1907 25.1339C61.3955 26.9292 62.5764 29.3196 62.5336 31.7053C62.5336 31.7053 62.9193 28.5196 60.1907 24.6101ZM40.0621 25.1339C41.2431 23.3577 42.4288 22.1768 42.4288 22.1768L42.3145 21.9958C41.3812 22.8815 40.6526 23.7672 40.0621 24.6101C37.3097 28.5196 37.6955 31.7053 37.6955 31.7053C37.6478 29.3196 38.8526 26.9292 40.0621 25.1339ZM71.6097 44.2387H67.105V61.7768C70.7812 53.9625 72.1097 46.5101 71.6097 44.2387ZM30.2621 39.4149H69.8383C69.4526 38.6863 69.0193 37.9577 68.5431 37.2101C65.1336 32.0482 62.1955 32.7958 62.1955 32.7958C61.5336 32.3196 60.8764 32.0244 60.1955 31.8625C57.2145 31.2006 54.2812 33.4292 53.9859 36.4101C53.9859 36.4101 54.3955 36.9577 54.0336 37.2768C53.6716 37.572 53.5335 37.3244 53.5335 37.3244L52.5574 36.3482C50.8526 36.3482 50.0335 38.4625 50.0335 38.4625C50.0335 38.4625 49.2621 36.3482 47.5335 36.3482L46.5764 37.3244C46.5764 37.3244 46.4193 37.5768 46.0764 37.2768C45.7145 36.9577 46.124 36.4101 46.124 36.4101C45.8288 33.4768 42.9859 31.272 40.0764 31.8387C39.3478 31.9768 38.6193 32.2911 37.9145 32.7958C37.9145 32.7958 34.9574 32.0434 31.5669 37.2101C31.0669 37.9625 30.6574 38.7101 30.2716 39.4149H30.2621ZM33.2669 62.1863V44.2339H28.5335C27.8335 48.7625 30.0526 55.7244 33.2669 62.1863ZM42.9336 75.1196V44.2339H38.0907V69.8768C39.6002 71.8101 41.2621 73.6149 42.9336 75.1149V75.1196ZM52.6002 78.5006V61.3339C54.9288 60.3577 56.5716 58.053 56.5716 55.3577C56.5716 52.6625 54.9288 50.3339 52.6002 49.3577V44.2339H47.7574V49.3053C45.3526 50.2482 43.6478 52.5958 43.6478 55.353C43.6478 58.1101 45.3478 60.4387 47.7574 61.3815V78.4577C48.5383 78.8196 49.2955 79.0625 50.005 79.1672C50.7955 79.1672 51.6716 78.9244 52.6002 78.4958V78.5006ZM57.4431 44.2387V75.0149C59.1097 73.4673 60.7669 71.6053 62.2669 69.6482V44.2387H57.4431ZM56.2812 42.3292H55.8288L56.305 41.0768L56.7621 42.3292H56.2859H56.2812ZM35.9716 42.3292H35.4955L35.9716 41.0768L36.4478 42.3292H35.9716Z" fill="#110C15"></path><path fill-rule="evenodd" clip-rule="evenodd" d="M67.1 44.2336V61.7717C67.1 61.7717 67.119 61.7289 67.1285 61.7051C66.9142 62.1908 66.6809 62.667 66.4333 63.1336C65.0523 65.5241 63.6428 67.8051 62.2571 69.6384V44.2289H57.4333V75.0051C57.4333 75.0051 57.419 75.0194 57.4142 75.0241C55.6285 76.6765 53.9809 77.8194 52.5904 78.4765V61.3241C54.919 60.3479 56.5619 58.0432 56.5619 55.3479C56.5619 52.6527 54.919 50.3241 52.5904 49.3479V44.2241H47.7476V49.2955C45.3428 50.2384 43.638 52.586 43.638 55.3432C43.638 58.1003 45.338 60.4289 47.7476 61.3717V78.4384C46.4333 77.8479 45.0333 76.9336 43.5142 75.6289C43.319 75.4622 43.1238 75.286 42.9238 75.1051V44.2336H38.0809V69.8765C38.2904 70.1432 38.5047 70.4098 38.719 70.6765L38.4285 70.3289C37.1761 68.7479 36.0666 67.0384 35.0428 65.3717C34.3761 64.2908 33.8142 63.2384 33.2904 62.2194C33.2809 62.2003 33.2714 62.1813 33.2619 62.1622V44.2336H29.6904L70.1761 44.2289L67.1 44.2336Z" fill="#EC3725"></path><path fill-rule="evenodd" clip-rule="evenodd" d="M71.6 44.2291C71.2809 42.7053 70.6905 41.091 69.8238 39.4053H68.8905V39.4338H32.7667V39.41H30.2667C29.4 41.0958 28.8333 42.6862 28.5381 44.2338H32.4381H69.4095H71.6095L71.6 44.2291ZM32.419 43.5291L31.1667 40.3434H31.9857L32.4238 41.7005V43.5291H32.4143H32.419Z" fill="#0A93D2"></path><path d="M51.4812 61.4097C52.1335 61.1287 54.5907 60.0097 54.6145 56.0811C54.6335 54.4716 54.224 52.0906 52.7288 51.0859C51.7145 50.943 51.0335 51.4001 50.7764 52.2573C51.1954 52.524 52.5526 53.6097 51.7621 56.0668C51.7907 56.1144 51.8193 56.1621 51.8431 56.2049C52.524 57.5144 52.3859 59.1144 51.0145 59.924C50.8097 60.0478 50.5859 60.1478 50.3573 60.2192C50.5812 60.8001 50.9907 61.1811 51.4907 61.4097H51.4812ZM50.1097 62.3049C46.2716 62.3049 43.1621 59.1954 43.1621 55.3573C43.1621 51.5192 46.2716 48.3906 50.1097 48.3906C53.9478 48.3906 57.0335 51.5001 57.0335 55.3573C57.0335 59.1954 53.924 62.3049 50.1097 62.3049ZM44.8764 59.1668C45.5478 60.0859 46.4573 60.824 47.5097 61.2859C47.2526 60.9144 47.024 60.4716 46.9478 60.0811C46.3907 59.4716 45.7193 59.024 44.8764 59.1668ZM43.6431 55.5525C43.6812 56.7811 44.0621 57.9192 44.6907 58.8859C45.624 58.6716 46.4954 59.1001 47.124 59.7954C47.4669 59.5192 48.4764 58.9525 50.1812 59.943C51.9193 59.4573 52.305 57.7906 51.5621 56.3525L51.5193 56.2716C50.8478 56.4763 47.5526 57.3192 43.6431 55.5525ZM44.6669 51.8382C44.0431 52.8097 43.6716 53.9621 43.6431 55.2049C45.7764 56.2001 47.7335 56.3906 49.1621 56.3287C50.2573 56.2811 51.1097 56.0621 51.4669 55.9573C51.8573 54.7144 51.7716 53.2478 50.5859 52.5144C49.7335 52.9049 48.7288 53.0382 47.9288 52.4716C46.7335 53.043 45.5431 52.8906 44.7097 51.8954L44.6621 51.8382H44.6669ZM49.8764 48.8668C47.805 48.943 45.9859 49.9859 44.8526 51.5621C44.8812 51.6001 44.9145 51.643 44.9526 51.6906C45.724 52.6097 46.7193 52.6621 47.7812 52.1906C47.7526 51.7668 47.8383 50.3906 49.8764 48.8668ZM53.8764 50.0811C52.8954 49.3716 51.705 48.9287 50.4193 48.8668C49.424 49.5478 48.1621 50.6906 48.0954 51.9906C48.0954 52.0811 48.0954 52.1525 48.0954 52.1954C48.1335 52.224 48.1716 52.2525 48.2097 52.2716C48.905 52.6859 49.7526 52.5573 50.4526 52.2192C50.7383 51.2192 51.5573 50.5906 52.6669 50.7287L52.7526 50.6478C53.0669 50.3573 53.4573 50.143 53.8764 50.0811ZM51.924 61.5716C54.6002 60.7859 56.5621 58.3049 56.5621 55.3573C56.5621 53.3573 55.6669 51.5716 54.2621 50.3811C53.7812 50.3382 53.3288 50.5525 52.9812 50.8716C53.5002 51.2478 54.9764 52.6335 54.9383 56.0811C54.9193 59.7382 52.8621 61.0906 51.9097 61.5573H51.9288L51.924 61.5716ZM50.1097 61.8382C50.5383 61.8382 50.9621 61.7954 51.3716 61.7144C50.7907 61.4525 50.3145 61.0097 50.0764 60.3859C50.0478 60.3192 50.0335 60.2621 50.0193 60.2192C49.124 59.7097 48.0621 59.4144 47.2764 60.0954C47.3002 60.1811 47.3383 60.2954 47.3907 60.4335C47.5097 60.7192 47.7145 61.1049 48.0716 61.5097C48.7097 61.724 49.3954 61.8382 50.1097 61.8382Z" fill="#B0392D"></path><path d="M50.3477 60.2196C50.5763 60.1481 50.8001 60.0481 51.0049 59.9243C52.3763 59.1148 52.5144 57.5148 51.8334 56.2053C51.8096 56.1624 51.781 56.11 51.7525 56.0672C52.5382 53.61 51.181 52.5243 50.7668 52.2577C51.0239 51.4005 51.7049 50.9434 52.7191 51.0862C54.2144 52.091 54.6239 54.4767 54.6048 56.0815C54.581 60.0053 52.1287 61.1291 51.4715 61.41C50.9715 61.1815 50.562 60.8005 50.3382 60.2196H50.3477ZM44.8715 59.1672C45.5429 60.0862 46.4525 60.8243 47.5049 61.2862C47.2477 60.9148 47.0191 60.4719 46.9429 60.0815C46.3858 59.4719 45.7144 59.0243 44.8715 59.1672ZM43.6382 55.5529C43.6763 56.7815 44.0572 57.9196 44.6858 58.8862C45.6191 58.672 46.4906 59.1005 47.1191 59.7958C47.462 59.5196 48.4715 58.9529 50.1763 59.9434C51.9144 59.4577 52.3001 57.791 51.5572 56.3529L51.5144 56.2719C50.8429 56.4767 47.5477 57.3196 43.6382 55.5529ZM44.662 51.8386C44.0382 52.81 43.6668 53.9624 43.6382 55.2053C45.7715 56.2005 47.7287 56.391 49.1572 56.3291C50.2525 56.2815 51.1049 56.0624 51.462 55.9577C51.8525 54.7148 51.7668 53.2481 50.581 52.5148C49.7287 52.9053 48.7239 53.0386 47.9239 52.4719C46.7287 53.0434 45.5382 52.891 44.7048 51.8958L44.6572 51.8386H44.662ZM49.8715 48.8672C47.8001 48.9434 45.981 49.9862 44.8477 51.5624C44.8763 51.6005 44.9096 51.6434 44.9477 51.691C45.7191 52.61 46.7144 52.6624 47.7763 52.191C47.7477 51.7672 47.8334 50.391 49.8715 48.8672ZM53.8715 50.0815C52.8906 49.3719 51.7001 48.9291 50.4144 48.8672C49.4191 49.5481 48.1572 50.691 48.0906 51.991C48.0906 52.0815 48.0906 52.1529 48.0906 52.1958C48.1287 52.2243 48.1668 52.2529 48.2049 52.2719C48.9001 52.6862 49.7477 52.5577 50.4477 52.2196C50.7334 51.2196 51.5525 50.591 52.662 50.7291L52.7477 50.6481C53.062 50.3577 53.4525 50.1434 53.8715 50.0815ZM51.9191 61.5719C54.5953 60.7862 56.5572 58.3053 56.5572 55.3577C56.5572 53.3577 55.662 51.5719 54.2572 50.3815C53.7763 50.3386 53.3239 50.5529 52.9763 50.8719C53.4953 51.2481 54.9715 52.6339 54.9334 56.0815C54.9144 59.7386 52.8572 61.091 51.9049 61.5577H51.9239L51.9191 61.5719ZM50.1049 61.8386C50.5334 61.8386 50.9572 61.7958 51.3668 61.7148C50.7858 61.4529 50.3096 61.01 50.0715 60.3862C50.0429 60.3196 50.0287 60.2624 50.0144 60.2196C49.1191 59.71 48.0572 59.4148 47.2715 60.0958C47.2953 60.1815 47.3334 60.2958 47.3858 60.4339C47.5049 60.7196 47.7096 61.1053 48.0668 61.51C48.7049 61.7243 49.3906 61.8386 50.1049 61.8386Z" fill="#CF8B2A"></path><path d="M69.2573 42.8908V43.5289H68.505V42.8908H69.2573ZM68.4145 40.9146V40.3479H65.8002V43.5336H66.5526V42.1908H68.1669V41.6432H66.5526V40.9146H68.4192H68.4145ZM64.1383 42.8908V43.5289H64.8907V42.8908H64.1383ZM62.2526 42.8241C62.1383 42.9813 61.9335 43.0527 61.6621 43.0527C61.4097 43.0527 61.2097 42.9622 61.0478 42.7812C60.8669 42.6003 60.7954 42.3479 60.7954 41.986C60.7954 41.6241 60.8621 41.3479 61.024 41.1432C61.1859 40.9622 61.4097 40.8479 61.6621 40.8479C61.9335 40.8479 62.1383 40.9193 62.2764 41.0527C62.3431 41.1432 62.4145 41.2574 62.4573 41.4146H63.2097C63.2097 41.2098 63.1193 41.0051 62.9573 40.8241C62.6859 40.4622 62.2526 40.2812 61.6383 40.2812C61.1859 40.2812 60.8193 40.4193 60.524 40.6908C60.1812 40.986 60.0002 41.4193 60.0002 41.9622C60.0002 42.5051 60.1621 42.8955 60.4573 43.1908C60.7526 43.486 61.1621 43.6241 61.6859 43.6241C62.0954 43.6241 62.4383 43.5098 62.7097 43.3051C62.9812 43.0765 63.1431 42.8051 63.2097 42.4622H62.4573C62.4145 42.6241 62.3431 42.7336 62.2526 42.8241ZM58.024 43.5289H57.1812L56.9526 42.867H55.6097L55.3573 43.5289H54.5621L55.8573 40.3432H56.724L58.0192 43.5289H58.024ZM56.7526 42.3241L56.3002 41.0717L55.824 42.3241H56.7573H56.7526ZM53.1573 40.3479V43.5336H53.9097V40.3479H53.1573ZM51.2907 42.8289C51.1526 42.986 50.9478 43.0574 50.6764 43.0574C50.424 43.0574 50.2192 42.967 50.0621 42.786C49.8812 42.6051 49.8097 42.3527 49.8097 41.9908C49.8097 41.6289 49.8764 41.3527 50.0383 41.1479C50.1954 40.967 50.424 40.8527 50.6764 40.8527C50.9478 40.8527 51.1526 40.9241 51.2907 41.0574C51.3573 41.1479 51.424 41.2622 51.4716 41.4193H52.224C52.224 41.2146 52.1335 41.0098 51.9716 40.8289C51.7002 40.467 51.2669 40.286 50.6526 40.286C50.1954 40.286 49.8335 40.4241 49.5383 40.6955C49.1954 40.9908 49.0145 41.4241 49.0145 41.967C49.0145 42.4908 49.1764 42.9003 49.4716 43.1955C49.7669 43.4908 50.1764 43.6289 50.7002 43.6289C51.1097 43.6289 51.4526 43.5146 51.724 43.3098C51.9954 43.0813 52.1573 42.8098 52.224 42.467H51.4716C51.424 42.6289 51.3573 42.7384 51.2907 42.8289ZM47.4478 40.3479V42.5765L45.9669 40.3479H45.1716V43.5336H45.8764V41.2574L47.3764 43.5336H48.1478V40.3479H47.4431H47.4478ZM42.3288 42.9622V42.1193H44.0573V41.5717H42.3288V40.9146H44.2145V40.3479H41.5764V43.5336H44.305V42.967H42.324L42.3288 42.9622ZM39.0097 42.9622V40.3479H38.2383V43.5336H40.8335V42.967H39.0145L39.0097 42.9622ZM37.6907 43.5289H36.8716L36.6431 42.867H35.2764L35.0288 43.5289H34.2573L35.5526 40.3432H36.4145L37.6907 43.5289ZM36.4383 42.3241L35.9621 41.0717L35.4859 42.3241H36.4431H36.4383ZM33.5716 40.3479L32.7764 42.7574L31.9812 40.3479H31.1621L32.4145 43.5336H33.1193L34.3669 40.3479H33.5716Z" fill="white"></path><path d="M30.7095 11.3384L31.1143 12.0717L28.9 13.2955L29.2476 13.9289L31.2143 12.8431L31.6143 13.5717L29.6476 14.6574L30.1333 15.5336L29.2714 16.0098L27.6333 13.0431L30.7095 11.3431V11.3384Z" fill="white"></path><path d="M36.3001 12.6237L35.762 12.1523L33.8286 12.938L33.7715 13.6523L32.7905 14.0523L33.1334 10.2571L34.3905 9.74756L37.281 12.2285L36.3048 12.6237H36.3001ZM33.8953 12.1142L35.1334 11.6095L34.0143 10.6333L33.8953 12.1142Z" fill="white"></path><path d="M41.3476 10.1764L40.7619 7.81927L41.7095 7.58594L42.5238 10.8764L41.1286 11.224L38.6048 9.34784L39.1905 11.705L38.2381 11.9431L37.4238 8.6526L38.8238 8.30499L41.3476 10.1812V10.1764Z" fill="white"></path><path d="M46.1191 6.96208L50.2001 6.79541L50.2334 7.62874L48.6858 7.69065L48.7906 10.243L47.8096 10.2811L47.7049 7.72874L46.1525 7.79065L46.1191 6.95731V6.96208Z" fill="white"></path><path d="M51.3903 8.49526C51.4855 7.37622 52.3141 6.78098 53.7379 6.90479C55.1569 7.0286 55.876 7.75717 55.7807 8.87145C55.6855 9.9905 54.8522 10.5953 53.4331 10.4715C52.0093 10.3476 51.295 9.61907 51.3903 8.49526ZM54.7569 8.78574C54.8093 8.20003 54.5045 7.80955 53.6664 7.73812C52.8331 7.66669 52.4665 7.9905 52.4188 8.58574C52.3665 9.18098 52.676 9.57145 53.5045 9.64288C54.3379 9.71431 54.7093 9.38098 54.7617 8.7905L54.7569 8.78574Z" fill="white"></path><path d="M61.6096 8.36192L59.6144 9.37621L60.862 11.6714L59.6572 11.4L58.7905 9.80002L57.8429 10.281L57.6905 10.9524L56.7334 10.7334L57.481 7.42383L58.4429 7.63811L58.1096 9.12383L60.1763 8.03335L61.6144 8.35716L61.6096 8.36192Z" fill="white"></path><path d="M66.3286 9.99553L66.0667 10.7193L63.6858 9.85744L63.5 10.367L65.7905 11.1955L65.5286 11.9193L63.2381 11.0908L63.0524 11.6003L65.4334 12.4622L65.1715 13.186L61.8667 11.9908L63.0191 8.80029L66.3238 9.99553H66.3286Z" fill="white"></path><path d="M69.7621 14.3526L70.8764 12.1907L71.7478 12.6383L70.1907 15.6526L68.9097 14.9907L68.2478 11.9097L67.1335 14.0716L66.2573 13.6193L67.8145 10.605L69.1002 11.2669L69.7621 14.3478V14.3526Z" fill="white"></path><path d="M27.395 85.4763C27.2474 85.7192 27.395 86.0239 28.1569 86.4858C28.8569 86.9049 29.095 86.9001 29.2045 86.7192C29.3331 86.5097 29.2236 86.3906 28.395 85.8144C27.2665 85.024 26.8903 84.4763 27.276 83.8335C27.6426 83.2287 28.4617 83.3478 29.4665 83.9525C30.5855 84.6239 31.0236 85.3525 30.6617 86.0144L29.7807 85.4859C29.9331 85.2287 29.7141 84.962 29.0617 84.5716C28.4426 84.2001 28.2426 84.2192 28.1474 84.3763C28.0379 84.5573 28.1474 84.6954 28.895 85.2335C29.9141 85.9573 30.5617 86.4478 30.1045 87.2097C29.6569 87.9525 28.8379 87.7573 27.8045 87.1335C26.6284 86.4239 26.0903 85.7382 26.5093 84.9478L27.3903 85.4811L27.395 85.4763Z" fill="white"></path><path d="M31.5236 87.1909C31.9712 86.1576 32.9426 85.8623 34.2569 86.429C35.5664 86.9957 36.014 87.9147 35.5712 88.9433C35.1236 89.9766 34.1426 90.2814 32.8331 89.7147C31.5188 89.148 31.0759 88.229 31.5236 87.1909ZM34.6283 88.5385C34.8616 87.9957 34.695 87.5338 33.9236 87.1957C33.1569 86.8623 32.7045 87.0576 32.4712 87.6004C32.2331 88.1481 32.4045 88.6147 33.1664 88.948C33.9331 89.2814 34.395 89.0814 34.6283 88.5338V88.5385Z" fill="white"></path><path d="M39.3047 88.2194C40.5047 88.5575 41.0428 89.2623 40.9047 90.129L39.9 89.848C39.919 89.529 39.6857 89.1909 39.0809 89.0242C38.3809 88.829 37.9476 89.0766 37.7857 89.648C37.6238 90.2242 37.8714 90.6671 38.5666 90.8623C39.1714 91.029 39.5476 90.8623 39.6952 90.5718L40.7 90.8528C40.3666 91.6718 39.5428 92.0004 38.3381 91.6671C37.0285 91.3004 36.4809 90.4909 36.7905 89.3718C37.1047 88.2575 37.9905 87.8528 39.3 88.2194H39.3047Z" fill="white"></path><path d="M43.3948 89.2289L42.7948 92.5623L41.8281 92.3861L42.4281 89.0527L43.3948 89.2289Z" fill="white"></path><path d="M44.4189 91.1481C44.5094 90.029 45.3332 89.4338 46.757 89.5481C48.176 89.6624 48.8999 90.3909 48.8046 91.5052C48.7141 92.6243 47.8856 93.229 46.4618 93.1147C45.0379 93.0005 44.3189 92.2719 44.4141 91.1481H44.4189ZM47.7856 91.4243C47.8332 90.8386 47.5284 90.4528 46.6903 90.3814C45.857 90.3148 45.4951 90.6433 45.4427 91.2338C45.3951 91.829 45.7046 92.2148 46.5332 92.2862C47.3665 92.3528 47.7379 92.0195 47.7856 91.4243Z" fill="white"></path><path d="M51.1188 92.048C51.1331 92.3337 51.4235 92.5051 52.314 92.4575C53.1283 92.4146 53.3235 92.2766 53.3093 92.0623C53.295 91.8146 53.1426 91.7813 52.1331 91.767C50.7569 91.7432 50.1331 91.5004 50.095 90.748C50.0569 90.0432 50.8045 89.6813 51.9759 89.6242C53.2807 89.5575 54.0521 89.9099 54.1188 90.6623L53.095 90.7146C53.0807 90.4146 52.7474 90.3194 51.9854 90.3575C51.2664 90.3956 51.1093 90.5242 51.1188 90.7051C51.1283 90.9146 51.295 90.9718 52.2188 91.0004C53.4664 91.0289 54.2807 91.0718 54.3283 91.9623C54.3712 92.8289 53.5854 93.1242 52.3807 93.1861C51.0093 93.2575 50.1759 92.9861 50.0854 92.0956L51.114 92.0432L51.1188 92.048Z" fill="white"></path><path d="M55.7426 92.0429L56.6806 91.9048L56.7854 92.6334L55.8473 92.7715L55.7378 92.0429H55.7426Z" fill="white"></path><path d="M59.4808 88.5382C60.6951 88.243 61.5094 88.5953 61.8141 89.4191L60.7999 89.6668C60.6618 89.3763 60.2903 89.2001 59.6808 89.3477C58.9761 89.5192 58.7189 89.9477 58.857 90.5287C58.9999 91.1096 59.4332 91.3763 60.1332 91.2049C60.7427 91.0572 60.9903 90.7239 60.9761 90.3953L61.9903 90.1477C62.0999 91.0239 61.5427 91.7191 60.3284 92.0144C59.0046 92.3382 58.1284 91.9001 57.8522 90.7715C57.576 89.6477 58.1522 88.862 59.4761 88.5382H59.4808Z" fill="white"></path><path d="M63.1522 89.3956C62.7379 88.348 63.2189 87.448 64.5474 86.9242C65.8712 86.4003 66.8427 86.7337 67.2522 87.7765C67.6665 88.8242 67.1855 89.7337 65.8617 90.2575C64.5331 90.7813 63.5665 90.448 63.1522 89.3956ZM66.2998 88.1527C66.0855 87.6051 65.6379 87.3908 64.857 87.7003C64.0808 88.0051 63.8951 88.4622 64.1141 89.0146C64.3331 89.5718 64.7855 89.7813 65.557 89.4765C66.3331 89.1718 66.5189 88.7051 66.2998 88.1527Z" fill="white"></path><path d="M69.3381 88.6907L67.6333 85.7574L68.9571 84.986L71.1095 86.3383L70.9952 83.8002L72.319 83.0288L74.0238 85.9621L73.1762 86.4526L71.9428 84.3288L72.0762 87.0955L71.2904 87.5526L68.9524 86.0717L70.1904 88.1955L69.3381 88.6907Z" fill="white"></path><path d="M23.019 81.8382C13.9952 74.1811 8.2666 62.7573 8.2666 50.0001C8.2666 37.243 14.2999 25.2144 23.738 17.562" stroke="white" stroke-miterlimit="10"></path><path d="M76.2666 17.5669C85.7047 25.2193 91.7333 36.905 91.7333 50.0002C91.7333 63.0955 86.0047 74.1859 76.9809 81.8431" stroke="white" stroke-miterlimit="10"></path></g><defs><clipPath id="clip0_101_22117"><rect width="100" height="100" fill="white"></rect></clipPath></defs></svg>